<svg width="744" height="385" viewBox="0 0 744 385" fill="none" xmlns="http://www.w3.org/2000/svg">
<path d="M131.925 127.02C127.029 127.02 122.677 126.204 118.869 124.572C115.129 122.94 111.491 120.39 107.955 116.922C107.139 116.242 106.731 115.426 106.731 114.474C106.731 113.658 107.037 112.91 107.649 112.23C108.329 111.55 109.077 111.21 109.893 111.21C110.709 111.21 111.457 111.55 112.137 112.23C117.441 118.078 124.071 121.002 132.027 121.002C136.923 121.002 140.969 119.846 144.165 117.534C147.429 115.222 149.061 112.196 149.061 108.456C149.061 105.532 148.245 103.118 146.613 101.214C145.049 99.242 142.975 97.644 140.391 96.42C137.807 95.196 134.509 93.938 130.497 92.646C126.145 91.354 122.473 89.926 119.481 88.362C116.557 86.798 114.177 84.724 112.341 82.14C110.505 79.488 109.587 76.156 109.587 72.144C109.587 68.54 110.539 65.344 112.443 62.556C114.415 59.768 117.135 57.592 120.603 56.028C124.139 54.396 128.185 53.58 132.741 53.58C136.889 53.58 140.765 54.294 144.369 55.722C148.041 57.082 150.965 59.054 153.141 61.638C154.161 62.794 154.671 63.78 154.671 64.596C154.671 65.344 154.331 66.058 153.651 66.738C152.971 67.35 152.223 67.656 151.407 67.656C150.727 67.656 150.149 67.418 149.673 66.942C147.837 64.766 145.389 62.998 142.329 61.638C139.269 60.278 136.073 59.598 132.741 59.598C127.777 59.598 123.731 60.72 120.603 62.964C117.475 65.14 115.911 68.132 115.911 71.94C115.911 75.884 117.407 78.91 120.399 81.018C123.391 83.126 127.675 85.064 133.251 86.832C138.079 88.26 142.023 89.722 145.083 91.218C148.143 92.714 150.625 94.856 152.529 97.644C154.501 100.364 155.487 103.968 155.487 108.456C155.487 111.924 154.467 115.086 152.427 117.942C150.455 120.73 147.667 122.94 144.063 124.572C140.527 126.204 136.481 127.02 131.925 127.02ZM190.934 72.654C194.13 72.654 197.088 73.028 199.808 73.776C202.596 74.456 204.806 75.408 206.438 76.632C208.138 77.856 208.988 79.182 208.988 80.61C208.988 81.358 208.716 82.038 208.172 82.65C207.696 83.262 207.084 83.568 206.336 83.568C205.656 83.568 205.078 83.432 204.602 83.16C204.194 82.888 203.718 82.48 203.174 81.936C202.29 81.052 201.44 80.406 200.624 79.998C199.604 79.522 198.244 79.148 196.544 78.876C194.912 78.536 193.144 78.366 191.24 78.366C187.5 78.366 184.066 79.318 180.938 81.222C177.878 83.126 175.464 85.71 173.696 88.974C171.928 92.238 171.044 95.842 171.044 99.786C171.044 103.866 171.894 107.538 173.594 110.802C175.294 114.066 177.64 116.65 180.632 118.554C183.692 120.39 187.16 121.308 191.036 121.308C193.484 121.308 195.422 121.104 196.85 120.696C198.346 120.288 199.808 119.71 201.236 118.962C201.712 118.69 202.528 118.078 203.684 117.126C204.228 116.65 204.704 116.31 205.112 116.106C205.52 115.834 205.962 115.698 206.438 115.698C207.254 115.698 207.9 115.97 208.376 116.514C208.852 116.99 209.09 117.636 209.09 118.452C209.09 119.608 208.274 120.866 206.642 122.226C205.01 123.518 202.766 124.64 199.91 125.592C197.054 126.544 193.892 127.02 190.424 127.02C185.46 127.02 181.04 125.864 177.164 123.552C173.288 121.172 170.262 117.908 168.086 113.76C165.978 109.612 164.924 104.954 164.924 99.786C164.924 94.822 166.012 90.3 168.188 86.22C170.364 82.072 173.424 78.774 177.368 76.326C181.312 73.878 185.834 72.654 190.934 72.654ZM245.165 72.654C246.525 72.654 247.749 72.926 248.837 73.47C249.925 74.014 250.469 74.83 250.469 75.918C250.469 76.87 250.197 77.652 249.653 78.264C249.109 78.808 248.463 79.08 247.715 79.08C247.375 79.08 246.695 78.91 245.675 78.57C244.723 78.23 243.805 78.06 242.921 78.06C240.405 78.06 237.889 79.046 235.373 81.018C232.925 82.922 230.885 85.404 229.253 88.464C227.689 91.524 226.907 94.618 226.907 97.746V122.94C226.907 123.824 226.601 124.572 225.989 125.184C225.445 125.728 224.731 126 223.847 126C222.963 126 222.215 125.728 221.603 125.184C221.059 124.572 220.787 123.824 220.787 122.94V77.244C220.787 76.36 221.059 75.646 221.603 75.102C222.215 74.49 222.963 74.184 223.847 74.184C224.731 74.184 225.445 74.49 225.989 75.102C226.601 75.646 226.907 76.36 226.907 77.244V86.22C228.471 82.344 230.817 79.148 233.945 76.632C237.141 74.048 240.881 72.722 245.165 72.654ZM305.886 99.888C305.886 104.988 304.764 109.612 302.52 113.76C300.276 117.908 297.182 121.172 293.238 123.552C289.294 125.864 284.908 127.02 280.08 127.02C275.252 127.02 270.866 125.864 266.922 123.552C262.978 121.172 259.884 117.908 257.64 113.76C255.396 109.612 254.274 104.988 254.274 99.888C254.274 94.788 255.396 90.164 257.64 86.016C259.884 81.868 262.978 78.604 266.922 76.224C270.866 73.844 275.252 72.654 280.08 72.654C284.908 72.654 289.294 73.844 293.238 76.224C297.182 78.604 300.276 81.868 302.52 86.016C304.764 90.164 305.886 94.788 305.886 99.888ZM299.766 99.888C299.766 95.808 298.916 92.136 297.216 88.872C295.516 85.608 293.136 83.058 290.076 81.222C287.084 79.318 283.752 78.366 280.08 78.366C276.408 78.366 273.076 79.318 270.084 81.222C267.092 83.058 264.712 85.608 262.944 88.872C261.244 92.136 260.394 95.808 260.394 99.888C260.394 103.9 261.244 107.538 262.944 110.802C264.712 114.066 267.092 116.65 270.084 118.554C273.076 120.39 276.408 121.308 280.08 121.308C283.752 121.308 287.084 120.39 290.076 118.554C293.136 116.718 295.516 114.168 297.216 110.904C298.916 107.64 299.766 103.968 299.766 99.888ZM325.136 122.94C325.136 123.824 324.83 124.572 324.218 125.184C323.674 125.728 322.96 126 322.076 126C321.192 126 320.444 125.728 319.832 125.184C319.288 124.572 319.016 123.824 319.016 122.94V53.58C319.016 52.696 319.288 51.982 319.832 51.438C320.444 50.826 321.192 50.52 322.076 50.52C322.96 50.52 323.674 50.826 324.218 51.438C324.83 51.982 325.136 52.696 325.136 53.58V122.94ZM348.644 122.94C348.644 123.824 348.338 124.572 347.726 125.184C347.182 125.728 346.468 126 345.584 126C344.7 126 343.952 125.728 343.34 125.184C342.796 124.572 342.524 123.824 342.524 122.94V53.58C342.524 52.696 342.796 51.982 343.34 51.438C343.952 50.826 344.7 50.52 345.584 50.52C346.468 50.52 347.182 50.826 347.726 51.438C348.338 51.982 348.644 52.696 348.644 53.58V122.94ZM435.64 50.52C436.524 50.52 437.238 50.826 437.782 51.438C438.394 51.982 438.7 52.696 438.7 53.58V122.94C438.7 123.824 438.394 124.572 437.782 125.184C437.238 125.728 436.524 126 435.64 126C434.756 126 434.008 125.728 433.396 125.184C432.852 124.572 432.58 123.824 432.58 122.94V115.8C430.88 118.928 428.33 121.58 424.93 123.756C421.598 125.932 417.892 127.02 413.812 127.02C409.324 127.02 405.244 125.864 401.572 123.552C397.968 121.172 395.112 117.908 393.004 113.76C390.896 109.612 389.842 104.954 389.842 99.786C389.842 94.686 390.896 90.062 393.004 85.914C395.112 81.766 397.968 78.536 401.572 76.224C405.244 73.844 409.29 72.654 413.71 72.654C417.722 72.654 421.428 73.674 424.828 75.714C428.228 77.686 430.812 80.27 432.58 83.466V53.58C432.58 52.696 432.852 51.982 433.396 51.438C434.008 50.826 434.756 50.52 435.64 50.52ZM414.424 121.308C417.96 121.308 421.122 120.39 423.91 118.554C426.766 116.718 428.976 114.168 430.54 110.904C432.172 107.572 432.988 103.866 432.988 99.786C432.988 95.774 432.172 92.136 430.54 88.872C428.976 85.608 426.766 83.058 423.91 81.222C421.122 79.318 417.96 78.366 414.424 78.366C410.888 78.366 407.692 79.318 404.836 81.222C402.048 83.058 399.838 85.608 398.206 88.872C396.642 92.136 395.86 95.774 395.86 99.786C395.86 103.866 396.642 107.538 398.206 110.802C399.838 114.066 402.048 116.65 404.836 118.554C407.692 120.39 410.888 121.308 414.424 121.308ZM502.813 99.888C502.813 104.988 501.691 109.612 499.447 113.76C497.203 117.908 494.109 121.172 490.165 123.552C486.221 125.864 481.835 127.02 477.007 127.02C472.179 127.02 467.793 125.864 463.849 123.552C459.905 121.172 456.811 117.908 454.567 113.76C452.323 109.612 451.201 104.988 451.201 99.888C451.201 94.788 452.323 90.164 454.567 86.016C456.811 81.868 459.905 78.604 463.849 76.224C467.793 73.844 472.179 72.654 477.007 72.654C481.835 72.654 486.221 73.844 490.165 76.224C494.109 78.604 497.203 81.868 499.447 86.016C501.691 90.164 502.813 94.788 502.813 99.888ZM496.693 99.888C496.693 95.808 495.843 92.136 494.143 88.872C492.443 85.608 490.063 83.058 487.003 81.222C484.011 79.318 480.679 78.366 477.007 78.366C473.335 78.366 470.003 79.318 467.011 81.222C464.019 83.058 461.639 85.608 459.871 88.872C458.171 92.136 457.321 95.808 457.321 99.888C457.321 103.9 458.171 107.538 459.871 110.802C461.639 114.066 464.019 116.65 467.011 118.554C470.003 120.39 473.335 121.308 477.007 121.308C480.679 121.308 484.011 120.39 487.003 118.554C490.063 116.718 492.443 114.168 494.143 110.904C495.843 107.64 496.693 103.968 496.693 99.888ZM577.245 72.756C578.129 72.756 578.843 73.028 579.387 73.572C579.999 74.116 580.305 74.864 580.305 75.816C580.305 75.884 580.203 76.326 579.999 77.142L564.291 124.062C563.951 124.674 563.509 125.184 562.965 125.592C562.421 125.932 561.843 126.068 561.231 126C560.619 126 560.075 125.83 559.599 125.49C559.123 125.15 558.749 124.674 558.477 124.062L545.115 92.646L533.181 124.062C532.909 124.606 532.501 125.082 531.957 125.49C531.481 125.83 530.971 126 530.427 126C529.747 126.068 529.101 125.932 528.489 125.592C527.945 125.184 527.571 124.674 527.367 124.062L511.251 77.142C511.047 76.734 510.945 76.292 510.945 75.816C510.945 74.932 511.251 74.218 511.863 73.674C512.475 73.062 513.223 72.756 514.107 72.756C514.719 72.756 515.263 72.96 515.739 73.368C516.283 73.708 516.657 74.184 516.861 74.796L530.427 115.494L542.565 84.996C543.041 83.704 543.993 83.058 545.421 83.058C546.781 83.058 547.733 83.704 548.277 84.996L561.027 115.29L574.389 74.796C574.797 73.436 575.749 72.756 577.245 72.756ZM616.613 72.654C622.937 72.654 627.561 74.524 630.485 78.264C633.477 81.936 634.973 86.832 634.973 92.952V122.94C634.973 123.824 634.667 124.572 634.055 125.184C633.443 125.728 632.729 126 631.913 126C631.029 126 630.281 125.728 629.669 125.184C629.125 124.572 628.853 123.824 628.853 122.94V93.258C628.853 88.838 627.731 85.268 625.487 82.548C623.311 79.76 619.911 78.366 615.287 78.366C612.363 78.366 609.575 79.046 606.923 80.406C604.339 81.766 602.231 83.602 600.599 85.914C598.967 88.158 598.151 90.606 598.151 93.258V122.94C598.151 123.824 597.845 124.572 597.233 125.184C596.689 125.728 595.975 126 595.091 126C594.207 126 593.459 125.728 592.847 125.184C592.303 124.572 592.031 123.824 592.031 122.94V77.244C592.031 76.36 592.303 75.646 592.847 75.102C593.459 74.49 594.207 74.184 595.091 74.184C595.975 74.184 596.689 74.49 597.233 75.102C597.845 75.646 598.151 76.36 598.151 77.244V82.854C599.987 79.93 602.605 77.516 606.005 75.612C609.473 73.64 613.009 72.654 616.613 72.654Z" fill="white"/>
<path d="M161 158C165.5 153 171.5 156 171.5 156L376 294.5C376 294.5 378.5 296.5 380.5 296.5C382.5 296.5 385 294.5 385 294.5L583.5 156C583.5 156 589 153.5 593.5 158.5C598 163.5 594.5 168 594.5 168L387.5 309.5C387.5 309.5 382 314 380.5 314C379 314 374.5 310 374.5 310L160 168C160 168 156.5 163 161 158Z" fill="white"/>
</svg>
