<svg width="785" height="918" viewBox="0 0 785 918" fill="none" xmlns="http://www.w3.org/2000/svg">
<g clip-path="url(#clip0)">
<rect width="785" height="918" fill="#102B6A"/>
<path d="M278.5 280.5C263.5 301.5 220 289.5 185.5 301.5C151 313.5 166 331 185.5 343.5C205 356 312.5 370 327.5 356C342.5 342 342 333 363.5 333C385 333 381.5 356 404 356C426.5 356 439 350.5 439 333C439 315.5 424.5 294.5 395 280.5C365.5 266.5 412 255 395 240C378 225 314.5 220.5 284.5 240C254.5 259.5 293.5 259.5 278.5 280.5Z" fill="#263D73"/>
<path d="M731.5 356C770 364 793 370 793 370L807 139C807 139 734.038 138.929 659 145C587.991 150.745 515.223 162.545 497.082 165.487L497 165.5C460 171.5 424.5 173 439 185.5C453.5 198 692.5 177.5 700.5 212C708.5 246.5 628.5 213.5 628.5 240C628.5 266.5 679.5 252.5 690 266.5C700.5 280.5 704 284.5 700.5 294.5C697 304.5 617.5 290 579.5 294.5C541.5 299 478 292.5 483 318C488 343.5 509.5 338.5 544.5 343.5C579.5 348.5 693 348 731.5 356Z" fill="#263D73"/>
<path d="M650.5 121.5C622 136 332 167.5 312.5 154C293 140.5 327 128.5 356.5 121.5C386 114.5 555.5 91 579.5 85.5C603.5 80 619.5 113.5 622.5 72.5C625.5 31.5 556.5 63 534 56.5C511.5 50 506.5 50.5 483 29.5C459.5 8.5 534 -5 534 -5H628.5C628.5 -5 700.5 39 700.5 72.5C700.5 106 679 107 650.5 121.5Z" fill="#263D73"/>
<circle cx="467" cy="246" r="5" fill="white"/>
<circle cx="391.5" cy="68.5" r="4.5" fill="white"/>
<circle cx="122.5" cy="265.5" r="2.5" fill="white"/>
<circle cx="99.5" cy="764.5" r="2.5" fill="white"/>
<circle cx="575.5" cy="222.5" r="1.5" fill="white"/>
<circle cx="614.5" cy="670.5" r="1.5" fill="white"/>
<circle cx="148.5" cy="482.5" r="1.5" fill="white"/>
<circle cx="721.5" cy="22.5" r="1.5" fill="white"/>
<circle cx="760.5" cy="797.5" r="1.5" fill="white"/>
<circle cx="611" cy="418" r="2" fill="white"/>
<circle cx="278" cy="44" r="3" fill="white"/>
<circle cx="405" cy="503" r="3" fill="white"/>
<circle cx="328.5" cy="613.5" r="1.5" fill="white"/>
</g>
<defs>
<clipPath id="clip0">
<rect width="785" height="918" fill="white"/>
</clipPath>
</defs>
</svg>
