<svg width="782" height="205" viewBox="0 0 782 205" fill="none" xmlns="http://www.w3.org/2000/svg">
<path d="M186.956 95.49C187.936 95.49 188.729 95.7933 189.336 96.4C189.989 97.0067 190.316 97.8 190.316 98.78C190.316 99.7133 189.989 100.483 189.336 101.09C188.729 101.697 187.936 102 186.956 102H163.296C162.316 102 161.499 101.673 160.846 101.02C160.239 100.367 159.936 99.5733 159.936 98.64V56.36C159.936 55.4267 160.263 54.6333 160.916 53.98C161.569 53.3267 162.409 53 163.436 53C164.369 53 165.163 53.3267 165.816 53.98C166.516 54.6333 166.866 55.4267 166.866 56.36V95.49H186.956ZM224.882 65.32C225.862 65.32 226.656 65.6467 227.262 66.3C227.916 66.9533 228.242 67.7467 228.242 68.68V87.3C228.242 92.1533 226.889 95.9333 224.182 98.64C221.522 101.3 217.742 102.63 212.842 102.63C207.989 102.63 204.232 101.3 201.572 98.64C198.912 95.9333 197.582 92.1533 197.582 87.3V68.68C197.582 67.7467 197.886 66.9533 198.492 66.3C199.146 65.6467 199.939 65.32 200.872 65.32C201.852 65.32 202.646 65.6467 203.252 66.3C203.906 66.9533 204.232 67.7467 204.232 68.68V87.3C204.232 93.4133 207.102 96.47 212.842 96.47C215.689 96.47 217.859 95.7 219.352 94.16C220.846 92.62 221.592 90.3333 221.592 87.3V68.68C221.592 67.7467 221.896 66.9533 222.502 66.3C223.156 65.6467 223.949 65.32 224.882 65.32ZM254.148 64.48C257.834 64.48 260.891 65.0633 263.318 66.23C265.791 67.3967 267.028 68.89 267.028 70.71C267.028 71.5033 266.771 72.2267 266.258 72.88C265.744 73.4867 265.091 73.79 264.298 73.79C263.691 73.79 263.201 73.6967 262.828 73.51C262.501 73.3233 262.034 73.02 261.428 72.6C261.148 72.32 260.704 71.9933 260.098 71.62C259.538 71.34 258.744 71.1067 257.718 70.92C256.691 70.7333 255.758 70.64 254.918 70.64C252.491 70.64 250.344 71.2 248.478 72.32C246.611 73.44 245.164 75.0033 244.138 77.01C243.111 78.97 242.598 81.1633 242.598 83.59C242.598 86.0633 243.088 88.28 244.068 90.24C245.094 92.2 246.518 93.74 248.338 94.86C250.158 95.98 252.234 96.54 254.568 96.54C256.994 96.54 258.954 96.1667 260.448 95.42C260.774 95.2333 261.218 94.93 261.778 94.51C262.244 94.1367 262.641 93.8567 262.968 93.67C263.341 93.4833 263.784 93.39 264.298 93.39C265.231 93.39 265.954 93.6933 266.468 94.3C267.028 94.86 267.308 95.6067 267.308 96.54C267.308 97.52 266.678 98.5 265.418 99.48C264.204 100.413 262.548 101.183 260.448 101.79C258.394 102.397 256.178 102.7 253.798 102.7C250.251 102.7 247.124 101.883 244.418 100.25C241.711 98.57 239.611 96.2833 238.118 93.39C236.671 90.45 235.948 87.1833 235.948 83.59C235.948 79.9967 236.718 76.7533 238.258 73.86C239.798 70.92 241.944 68.6333 244.698 67C247.451 65.32 250.601 64.48 254.148 64.48ZM280.445 98.64C280.445 99.5733 280.118 100.367 279.465 101.02C278.858 101.673 278.065 102 277.085 102C276.151 102 275.358 101.673 274.705 101.02C274.098 100.367 273.795 99.5733 273.795 98.64V68.33C273.795 67.3967 274.098 66.6033 274.705 65.95C275.358 65.2967 276.151 64.97 277.085 64.97C278.065 64.97 278.858 65.2967 279.465 65.95C280.118 66.6033 280.445 67.3967 280.445 68.33V98.64ZM277.085 60.35C275.731 60.35 274.751 60.1167 274.145 59.65C273.585 59.1367 273.305 58.3433 273.305 57.27V56.15C273.305 55.03 273.608 54.2367 274.215 53.77C274.868 53.3033 275.848 53.07 277.155 53.07C278.461 53.07 279.395 53.3267 279.955 53.84C280.561 54.3067 280.865 55.0767 280.865 56.15V57.27C280.865 58.39 280.561 59.1833 279.955 59.65C279.348 60.1167 278.391 60.35 277.085 60.35ZM297.214 98.64C297.214 99.5733 296.888 100.367 296.234 101.02C295.581 101.673 294.788 102 293.854 102C292.921 102 292.128 101.673 291.474 101.02C290.868 100.367 290.564 99.5733 290.564 98.64V53.56C290.564 52.6267 290.891 51.8333 291.544 51.18C292.198 50.5267 292.991 50.2 293.924 50.2C294.858 50.2 295.628 50.5267 296.234 51.18C296.888 51.8333 297.214 52.6267 297.214 53.56V98.64ZM339.226 82.26C339.179 83.1 338.829 83.8233 338.176 84.43C337.522 84.99 336.752 85.27 335.866 85.27H311.226C311.552 88.6767 312.836 91.4067 315.076 93.46C317.362 95.5133 320.139 96.54 323.406 96.54C325.646 96.54 327.466 96.2133 328.866 95.56C330.266 94.9067 331.502 94.0667 332.576 93.04C333.276 92.62 333.952 92.41 334.606 92.41C335.399 92.41 336.052 92.69 336.566 93.25C337.126 93.81 337.406 94.4633 337.406 95.21C337.406 96.19 336.939 97.0767 336.006 97.87C334.652 99.2233 332.856 100.367 330.616 101.3C328.376 102.233 326.089 102.7 323.756 102.7C319.976 102.7 316.639 101.907 313.746 100.32C310.899 98.7333 308.682 96.5167 307.096 93.67C305.556 90.8233 304.786 87.6033 304.786 84.01C304.786 80.09 305.579 76.66 307.166 73.72C308.799 70.7333 310.922 68.4467 313.536 66.86C316.196 65.2733 319.042 64.48 322.076 64.48C325.062 64.48 327.862 65.25 330.476 66.79C333.089 68.33 335.189 70.4533 336.776 73.16C338.362 75.8667 339.179 78.9 339.226 82.26ZM322.076 70.64C319.462 70.64 317.199 71.3867 315.286 72.88C313.372 74.3267 312.112 76.59 311.506 79.67H332.156V79.11C331.922 76.6367 330.802 74.6067 328.796 73.02C326.836 71.4333 324.596 70.64 322.076 70.64ZM402.832 52.93C403.765 52.93 404.558 53.2333 405.212 53.84C405.912 54.4467 406.262 55.1933 406.262 56.08C406.262 56.5467 406.145 57.06 405.912 57.62L388.062 99.83C387.735 100.53 387.268 101.067 386.662 101.44C386.055 101.813 385.425 102 384.772 102C384.165 101.953 383.582 101.767 383.022 101.44C382.508 101.067 382.088 100.553 381.762 99.9L363.912 57.62C363.725 57.2467 363.632 56.7567 363.632 56.15C363.632 55.17 363.982 54.3767 364.682 53.77C365.382 53.1633 366.152 52.86 366.992 52.86C368.392 52.86 369.418 53.6067 370.072 55.1L385.332 91.15L399.752 55.03C400.078 54.3767 400.498 53.8633 401.012 53.49C401.572 53.1167 402.178 52.93 402.832 52.93ZM442.254 64.83C443.234 64.83 444.028 65.1567 444.634 65.81C445.288 66.4167 445.614 67.2333 445.614 68.26V98.64C445.614 99.5733 445.288 100.367 444.634 101.02C444.028 101.673 443.234 102 442.254 102C441.274 102 440.481 101.697 439.874 101.09C439.268 100.437 438.964 99.62 438.964 98.64V96.82C437.751 98.4533 436.094 99.8533 433.994 101.02C431.894 102.14 429.631 102.7 427.204 102.7C424.031 102.7 421.138 101.883 418.524 100.25C415.958 98.6167 413.928 96.3533 412.434 93.46C410.988 90.52 410.264 87.23 410.264 83.59C410.264 79.95 410.988 76.6833 412.434 73.79C413.928 70.85 415.958 68.5633 418.524 66.93C421.091 65.2967 423.914 64.48 426.994 64.48C429.468 64.48 431.754 64.9933 433.854 66.02C436.001 67.0467 437.704 68.3533 438.964 69.94V68.26C438.964 67.28 439.268 66.4633 439.874 65.81C440.481 65.1567 441.274 64.83 442.254 64.83ZM427.974 96.54C430.168 96.54 432.104 95.98 433.784 94.86C435.511 93.74 436.841 92.2 437.774 90.24C438.754 88.28 439.244 86.0633 439.244 83.59C439.244 81.1633 438.754 78.97 437.774 77.01C436.841 75.05 435.511 73.51 433.784 72.39C432.104 71.2233 430.168 70.64 427.974 70.64C425.781 70.64 423.821 71.2 422.094 72.32C420.414 73.44 419.084 74.98 418.104 76.94C417.171 78.9 416.704 81.1167 416.704 83.59C416.704 86.0633 417.171 88.28 418.104 90.24C419.084 92.2 420.414 93.74 422.094 94.86C423.821 95.98 425.781 96.54 427.974 96.54ZM471.462 64.48C475.149 64.48 478.206 65.0633 480.632 66.23C483.106 67.3967 484.342 68.89 484.342 70.71C484.342 71.5033 484.086 72.2267 483.572 72.88C483.059 73.4867 482.406 73.79 481.612 73.79C481.006 73.79 480.516 73.6967 480.142 73.51C479.816 73.3233 479.349 73.02 478.742 72.6C478.462 72.32 478.019 71.9933 477.412 71.62C476.852 71.34 476.059 71.1067 475.032 70.92C474.006 70.7333 473.072 70.64 472.232 70.64C469.806 70.64 467.659 71.2 465.792 72.32C463.926 73.44 462.479 75.0033 461.452 77.01C460.426 78.97 459.912 81.1633 459.912 83.59C459.912 86.0633 460.402 88.28 461.382 90.24C462.409 92.2 463.832 93.74 465.652 94.86C467.472 95.98 469.549 96.54 471.882 96.54C474.309 96.54 476.269 96.1667 477.762 95.42C478.089 95.2333 478.532 94.93 479.092 94.51C479.559 94.1367 479.956 93.8567 480.282 93.67C480.656 93.4833 481.099 93.39 481.612 93.39C482.546 93.39 483.269 93.6933 483.782 94.3C484.342 94.86 484.622 95.6067 484.622 96.54C484.622 97.52 483.992 98.5 482.732 99.48C481.519 100.413 479.862 101.183 477.762 101.79C475.709 102.397 473.492 102.7 471.112 102.7C467.566 102.7 464.439 101.883 461.732 100.25C459.026 98.57 456.926 96.2833 455.432 93.39C453.986 90.45 453.262 87.1833 453.262 83.59C453.262 79.9967 454.032 76.7533 455.572 73.86C457.112 70.92 459.259 68.6333 462.012 67C464.766 65.32 467.916 64.48 471.462 64.48ZM521.209 65.18C522.189 65.18 522.983 65.5067 523.589 66.16C524.243 66.7667 524.569 67.5833 524.569 68.61V112.64C524.569 113.573 524.243 114.367 523.589 115.02C522.983 115.673 522.189 116 521.209 116C520.229 116 519.436 115.673 518.829 115.02C518.223 114.413 517.919 113.62 517.919 112.64V96.68C516.753 98.36 515.096 99.7833 512.949 100.95C510.849 102.117 508.586 102.7 506.159 102.7C502.986 102.7 500.116 101.883 497.549 100.25C494.983 98.6167 492.953 96.3533 491.459 93.46C489.966 90.52 489.219 87.23 489.219 83.59C489.219 79.95 489.943 76.6833 491.389 73.79C492.883 70.85 494.913 68.5633 497.479 66.93C500.046 65.2967 502.869 64.48 505.949 64.48C508.423 64.48 510.709 64.9933 512.809 66.02C514.909 67.0467 516.613 68.3767 517.919 70.01V68.61C517.919 67.63 518.223 66.8133 518.829 66.16C519.436 65.5067 520.229 65.18 521.209 65.18ZM506.929 96.54C509.123 96.54 511.059 95.98 512.739 94.86C514.466 93.74 515.796 92.2 516.729 90.24C517.709 88.28 518.199 86.0633 518.199 83.59C518.199 81.1633 517.709 78.97 516.729 77.01C515.796 75.0033 514.466 73.44 512.739 72.32C511.059 71.2 509.123 70.64 506.929 70.64C504.736 70.64 502.776 71.2 501.049 72.32C499.369 73.44 498.039 75.0033 497.059 77.01C496.126 78.97 495.659 81.1633 495.659 83.59C495.659 86.0633 496.126 88.28 497.059 90.24C498.039 92.2 499.369 93.74 501.049 94.86C502.776 95.98 504.736 96.54 506.929 96.54ZM561.757 65.32C562.737 65.32 563.531 65.6467 564.137 66.3C564.791 66.9533 565.117 67.7467 565.117 68.68V87.3C565.117 92.1533 563.764 95.9333 561.057 98.64C558.397 101.3 554.617 102.63 549.717 102.63C544.864 102.63 541.107 101.3 538.447 98.64C535.787 95.9333 534.457 92.1533 534.457 87.3V68.68C534.457 67.7467 534.761 66.9533 535.367 66.3C536.021 65.6467 536.814 65.32 537.747 65.32C538.727 65.32 539.521 65.6467 540.127 66.3C540.781 66.9533 541.107 67.7467 541.107 68.68V87.3C541.107 93.4133 543.977 96.47 549.717 96.47C552.564 96.47 554.734 95.7 556.227 94.16C557.721 92.62 558.467 90.3333 558.467 87.3V68.68C558.467 67.7467 558.771 66.9533 559.377 66.3C560.031 65.6467 560.824 65.32 561.757 65.32ZM581.363 98.64C581.363 99.5733 581.036 100.367 580.383 101.02C579.776 101.673 578.983 102 578.003 102C577.069 102 576.276 101.673 575.623 101.02C575.016 100.367 574.713 99.5733 574.713 98.64V68.33C574.713 67.3967 575.016 66.6033 575.623 65.95C576.276 65.2967 577.069 64.97 578.003 64.97C578.983 64.97 579.776 65.2967 580.383 65.95C581.036 66.6033 581.363 67.3967 581.363 68.33V98.64ZM578.003 60.35C576.649 60.35 575.669 60.1167 575.063 59.65C574.503 59.1367 574.223 58.3433 574.223 57.27V56.15C574.223 55.03 574.526 54.2367 575.133 53.77C575.786 53.3033 576.766 53.07 578.073 53.07C579.379 53.07 580.313 53.3267 580.873 53.84C581.479 54.3067 581.783 55.0767 581.783 56.15V57.27C581.783 58.39 581.479 59.1833 580.873 59.65C580.266 60.1167 579.309 60.35 578.003 60.35ZM623.122 82.26C623.075 83.1 622.725 83.8233 622.072 84.43C621.419 84.99 620.649 85.27 619.762 85.27H595.122C595.449 88.6767 596.732 91.4067 598.972 93.46C601.259 95.5133 604.035 96.54 607.302 96.54C609.542 96.54 611.362 96.2133 612.762 95.56C614.162 94.9067 615.399 94.0667 616.472 93.04C617.172 92.62 617.849 92.41 618.502 92.41C619.295 92.41 619.949 92.69 620.462 93.25C621.022 93.81 621.302 94.4633 621.302 95.21C621.302 96.19 620.835 97.0767 619.902 97.87C618.549 99.2233 616.752 100.367 614.512 101.3C612.272 102.233 609.985 102.7 607.652 102.7C603.872 102.7 600.535 101.907 597.642 100.32C594.795 98.7333 592.579 96.5167 590.992 93.67C589.452 90.8233 588.682 87.6033 588.682 84.01C588.682 80.09 589.475 76.66 591.062 73.72C592.695 70.7333 594.819 68.4467 597.432 66.86C600.092 65.2733 602.939 64.48 605.972 64.48C608.959 64.48 611.759 65.25 614.372 66.79C616.985 68.33 619.085 70.4533 620.672 73.16C622.259 75.8667 623.075 78.9 623.122 82.26ZM605.972 70.64C603.359 70.64 601.095 71.3867 599.182 72.88C597.269 74.3267 596.009 76.59 595.402 79.67H616.052V79.11C615.819 76.6367 614.699 74.6067 612.692 73.02C610.732 71.4333 608.492 70.64 605.972 70.64Z" fill="#FEAA3B"/>
<path d="M199.653 175.582C199.731 175.816 199.77 176.063 199.77 176.323C199.77 176.843 199.588 177.272 199.224 177.61C198.886 177.948 198.483 178.117 198.015 178.117C197.651 178.117 197.313 178.013 197.001 177.805C196.715 177.571 196.481 177.259 196.299 176.869L193.881 171.136H181.83L179.451 176.908C179.321 177.298 179.1 177.597 178.788 177.805C178.502 178.013 178.177 178.117 177.813 178.117C177.267 178.117 176.851 177.974 176.565 177.688C176.279 177.402 176.136 177.012 176.136 176.518C176.136 176.414 176.162 176.206 176.214 175.894L186.159 151.792C186.341 151.376 186.588 151.064 186.9 150.856C187.238 150.622 187.615 150.531 188.031 150.583C188.421 150.583 188.772 150.687 189.084 150.895C189.396 151.103 189.617 151.402 189.747 151.792L199.653 175.582ZM192.399 167.587L187.836 156.667L183.312 167.587H192.399ZM202.055 174.802C201.821 174.438 201.704 174.087 201.704 173.749C201.704 173.229 201.977 172.787 202.523 172.423C202.783 172.241 203.082 172.15 203.42 172.15C203.888 172.15 204.317 172.345 204.707 172.735C205.487 173.619 206.319 174.282 207.203 174.724C208.113 175.166 209.192 175.387 210.44 175.387C211.428 175.361 212.299 175.14 213.053 174.724C213.807 174.282 214.184 173.58 214.184 172.618C214.184 171.734 213.794 171.058 213.014 170.59C212.26 170.122 211.142 169.693 209.66 169.303C208.204 168.913 206.995 168.51 206.033 168.094C205.071 167.652 204.252 167.028 203.576 166.222C202.926 165.39 202.601 164.311 202.601 162.985C202.601 161.815 202.926 160.788 203.576 159.904C204.252 159.02 205.136 158.331 206.228 157.837C207.346 157.343 208.555 157.096 209.855 157.096C211.103 157.096 212.338 157.33 213.56 157.798C214.808 158.266 215.822 158.981 216.602 159.943C216.914 160.307 217.07 160.684 217.07 161.074C217.07 161.49 216.862 161.893 216.446 162.283C216.186 162.517 215.861 162.634 215.471 162.634C215.003 162.634 214.626 162.478 214.34 162.166C213.794 161.542 213.118 161.061 212.312 160.723C211.532 160.385 210.661 160.216 209.699 160.216C208.711 160.216 207.866 160.424 207.164 160.84C206.488 161.23 206.15 161.906 206.15 162.868C206.176 163.778 206.566 164.454 207.32 164.896C208.1 165.338 209.283 165.767 210.869 166.183C212.247 166.547 213.391 166.937 214.301 167.353C215.211 167.769 215.978 168.393 216.602 169.225C217.226 170.031 217.538 171.097 217.538 172.423C217.538 173.645 217.187 174.711 216.485 175.621C215.783 176.505 214.86 177.194 213.716 177.688C212.598 178.156 211.402 178.39 210.128 178.39C208.49 178.39 206.969 178.104 205.565 177.532C204.187 176.96 203.017 176.05 202.055 174.802ZM232.068 157.213C233.836 157.213 235.435 157.668 236.865 158.578C238.295 159.462 239.413 160.71 240.219 162.322C241.051 163.934 241.467 165.754 241.467 167.782C241.467 169.81 241.051 171.63 240.219 173.242C239.413 174.828 238.295 176.076 236.865 176.986C235.435 177.896 233.862 178.351 232.146 178.351C230.794 178.351 229.533 178.052 228.363 177.454C227.193 176.856 226.244 176.128 225.516 175.27V183.928C225.516 184.448 225.334 184.89 224.97 185.254C224.632 185.618 224.19 185.8 223.644 185.8C223.124 185.8 222.682 185.618 222.318 185.254C221.98 184.916 221.811 184.474 221.811 183.928V159.397C221.811 158.851 221.98 158.396 222.318 158.032C222.656 157.668 223.098 157.486 223.644 157.486C224.19 157.486 224.632 157.668 224.97 158.032C225.334 158.396 225.516 158.851 225.516 159.397V160.528C226.14 159.618 227.05 158.838 228.246 158.188C229.442 157.538 230.716 157.213 232.068 157.213ZM231.639 174.919C232.835 174.919 233.914 174.607 234.876 173.983C235.838 173.359 236.579 172.514 237.099 171.448C237.645 170.356 237.918 169.134 237.918 167.782C237.918 166.43 237.645 165.221 237.099 164.155C236.579 163.063 235.838 162.205 234.876 161.581C233.914 160.957 232.835 160.645 231.639 160.645C230.417 160.645 229.325 160.957 228.363 161.581C227.401 162.179 226.647 163.024 226.101 164.116C225.581 165.208 225.321 166.43 225.321 167.782C225.321 169.134 225.581 170.356 226.101 171.448C226.647 172.54 227.401 173.398 228.363 174.022C229.325 174.62 230.417 174.919 231.639 174.919ZM249.277 176.128C249.277 176.648 249.095 177.09 248.731 177.454C248.393 177.818 247.951 178 247.405 178C246.885 178 246.443 177.818 246.079 177.454C245.741 177.09 245.572 176.648 245.572 176.128V159.241C245.572 158.721 245.741 158.279 246.079 157.915C246.443 157.551 246.885 157.369 247.405 157.369C247.951 157.369 248.393 157.551 248.731 157.915C249.095 158.279 249.277 158.721 249.277 159.241V176.128ZM247.405 154.795C246.651 154.795 246.105 154.665 245.767 154.405C245.455 154.119 245.299 153.677 245.299 153.079V152.455C245.299 151.831 245.468 151.389 245.806 151.129C246.17 150.869 246.716 150.739 247.444 150.739C248.172 150.739 248.692 150.882 249.004 151.168C249.342 151.428 249.511 151.857 249.511 152.455V153.079C249.511 153.703 249.342 154.145 249.004 154.405C248.666 154.665 248.133 154.795 247.405 154.795ZM264.782 157.096C265.458 157.096 266.043 157.278 266.537 157.642C267.031 157.98 267.278 158.409 267.278 158.929C267.278 159.553 267.109 160.034 266.771 160.372C266.459 160.684 266.069 160.84 265.601 160.84C265.367 160.84 265.016 160.762 264.548 160.606C264.002 160.424 263.573 160.333 263.261 160.333C262.455 160.333 261.662 160.619 260.882 161.191C260.128 161.737 259.504 162.504 259.01 163.492C258.542 164.454 258.308 165.533 258.308 166.729V176.128C258.308 176.648 258.126 177.09 257.762 177.454C257.424 177.818 256.982 178 256.436 178C255.89 178 255.448 177.831 255.11 177.493C254.772 177.129 254.603 176.674 254.603 176.128V159.436C254.603 158.916 254.772 158.474 255.11 158.11C255.474 157.746 255.916 157.564 256.436 157.564C256.982 157.564 257.424 157.746 257.762 158.11C258.126 158.474 258.308 158.916 258.308 159.436V161.425C258.88 160.151 259.738 159.124 260.882 158.344C262.026 157.538 263.326 157.122 264.782 157.096ZM274.223 176.128C274.223 176.648 274.041 177.09 273.677 177.454C273.339 177.818 272.897 178 272.351 178C271.831 178 271.389 177.818 271.025 177.454C270.687 177.09 270.518 176.648 270.518 176.128V159.241C270.518 158.721 270.687 158.279 271.025 157.915C271.389 157.551 271.831 157.369 272.351 157.369C272.897 157.369 273.339 157.551 273.677 157.915C274.041 158.279 274.223 158.721 274.223 159.241V176.128ZM272.351 154.795C271.597 154.795 271.051 154.665 270.713 154.405C270.401 154.119 270.245 153.677 270.245 153.079V152.455C270.245 151.831 270.414 151.389 270.752 151.129C271.116 150.869 271.662 150.739 272.39 150.739C273.118 150.739 273.638 150.882 273.95 151.168C274.288 151.428 274.457 151.857 274.457 152.455V153.079C274.457 153.703 274.288 154.145 273.95 154.405C273.612 154.665 273.079 154.795 272.351 154.795ZM289.962 157.096C294.642 157.096 296.982 159.904 296.982 165.52V176.128C296.982 176.648 296.8 177.09 296.436 177.454C296.098 177.818 295.656 178 295.11 178C294.59 178 294.148 177.818 293.784 177.454C293.446 177.09 293.277 176.648 293.277 176.128V165.559C293.277 164.025 292.926 162.803 292.224 161.893C291.522 160.983 290.378 160.528 288.792 160.528C287.752 160.528 286.803 160.762 285.945 161.23C285.113 161.672 284.45 162.283 283.956 163.063C283.488 163.817 283.254 164.649 283.254 165.559V176.128C283.254 176.648 283.072 177.09 282.708 177.454C282.37 177.818 281.928 178 281.382 178C280.836 178 280.394 177.831 280.056 177.493C279.718 177.129 279.549 176.674 279.549 176.128V159.436C279.549 158.916 279.718 158.474 280.056 158.11C280.42 157.746 280.862 157.564 281.382 157.564C281.928 157.564 282.37 157.746 282.708 158.11C283.072 158.474 283.254 158.916 283.254 159.436V160.801C283.93 159.761 284.866 158.89 286.062 158.188C287.284 157.46 288.584 157.096 289.962 157.096ZM319.597 157.291C320.143 157.291 320.585 157.473 320.923 157.837C321.287 158.175 321.469 158.63 321.469 159.202V176.362C321.469 178.468 321.014 180.223 320.104 181.627C319.22 183.057 318.011 184.11 316.477 184.786C314.943 185.462 313.214 185.8 311.29 185.8C310.25 185.8 309.028 185.618 307.624 185.254C306.246 184.89 305.362 184.513 304.972 184.123C304.166 183.707 303.763 183.187 303.763 182.563C303.763 182.407 303.815 182.199 303.919 181.939C304.205 181.289 304.686 180.964 305.362 180.964C305.7 180.964 306.064 181.042 306.454 181.198C308.534 182.004 310.159 182.407 311.329 182.407C313.409 182.407 314.995 181.9 316.087 180.886C317.205 179.898 317.764 178.533 317.764 176.791V174.685C317.218 175.699 316.295 176.57 314.995 177.298C313.721 178.026 312.369 178.39 310.939 178.39C309.145 178.39 307.507 177.935 306.025 177.025C304.543 176.115 303.373 174.854 302.515 173.242C301.683 171.604 301.267 169.771 301.267 167.743C301.267 165.715 301.683 163.895 302.515 162.283C303.373 160.645 304.53 159.371 305.986 158.461C307.468 157.551 309.093 157.096 310.861 157.096C312.291 157.096 313.617 157.421 314.839 158.071C316.087 158.721 317.062 159.514 317.764 160.45V159.202C317.764 158.656 317.933 158.201 318.271 157.837C318.609 157.473 319.051 157.291 319.597 157.291ZM311.368 174.958C312.642 174.958 313.773 174.659 314.761 174.061C315.749 173.437 316.516 172.579 317.062 171.487C317.634 170.369 317.92 169.121 317.92 167.743C317.92 166.365 317.634 165.13 317.062 164.038C316.516 162.946 315.749 162.088 314.761 161.464C313.773 160.84 312.642 160.528 311.368 160.528C310.12 160.528 309.002 160.84 308.014 161.464C307.026 162.088 306.246 162.959 305.674 164.077C305.128 165.169 304.855 166.391 304.855 167.743C304.855 169.095 305.128 170.33 305.674 171.448C306.246 172.54 307.026 173.398 308.014 174.022C309.002 174.646 310.12 174.958 311.368 174.958ZM361.651 157.369C362.145 157.369 362.561 157.551 362.899 157.915C363.263 158.253 363.445 158.695 363.445 159.241C363.445 159.423 363.393 159.67 363.289 159.982L357.322 176.83C357.166 177.246 356.906 177.558 356.542 177.766C356.178 177.974 355.788 178.052 355.372 178C354.67 177.948 354.137 177.558 353.773 176.83L349.717 166.222L345.973 176.83C345.817 177.194 345.596 177.48 345.31 177.688C345.024 177.87 344.712 177.974 344.374 178C343.984 178.052 343.594 177.974 343.204 177.766C342.84 177.532 342.593 177.22 342.463 176.83L336.418 159.982C336.34 159.748 336.301 159.501 336.301 159.241C336.301 158.721 336.47 158.279 336.808 157.915C337.146 157.551 337.588 157.369 338.134 157.369C339.018 157.369 339.59 157.759 339.85 158.539L344.491 171.682L348.196 161.971C348.508 161.191 349.08 160.801 349.912 160.801C350.692 160.801 351.225 161.191 351.511 161.971L355.294 171.526L359.857 158.539C360.143 157.759 360.741 157.369 361.651 157.369ZM385.392 167.002C385.366 167.47 385.171 167.873 384.807 168.211C384.443 168.523 384.014 168.679 383.52 168.679H369.792C369.974 170.577 370.689 172.098 371.937 173.242C373.211 174.386 374.758 174.958 376.578 174.958C377.826 174.958 378.84 174.776 379.62 174.412C380.4 174.048 381.089 173.58 381.687 173.008C382.077 172.774 382.454 172.657 382.818 172.657C383.26 172.657 383.624 172.813 383.91 173.125C384.222 173.437 384.378 173.801 384.378 174.217C384.378 174.763 384.118 175.257 383.598 175.699C382.844 176.453 381.843 177.09 380.595 177.61C379.347 178.13 378.073 178.39 376.773 178.39C374.667 178.39 372.808 177.948 371.196 177.064C369.61 176.18 368.375 174.945 367.491 173.359C366.633 171.773 366.204 169.979 366.204 167.977C366.204 165.793 366.646 163.882 367.53 162.244C368.44 160.58 369.623 159.306 371.079 158.422C372.561 157.538 374.147 157.096 375.837 157.096C377.501 157.096 379.061 157.525 380.517 158.383C381.973 159.241 383.143 160.424 384.027 161.932C384.911 163.44 385.366 165.13 385.392 167.002ZM375.837 160.528C374.381 160.528 373.12 160.944 372.054 161.776C370.988 162.582 370.286 163.843 369.948 165.559H381.453V165.247C381.323 163.869 380.699 162.738 379.581 161.854C378.489 160.97 377.241 160.528 375.837 160.528ZM399.951 157.096C401.719 157.096 403.318 157.551 404.748 158.461C406.178 159.371 407.296 160.632 408.102 162.244C408.934 163.856 409.35 165.676 409.35 167.704C409.35 169.732 408.934 171.565 408.102 173.203C407.296 174.841 406.178 176.115 404.748 177.025C403.318 177.935 401.745 178.39 400.029 178.39C398.677 178.39 397.416 178.091 396.246 177.493C395.076 176.895 394.127 176.154 393.399 175.27V176.401C393.399 176.921 393.217 177.363 392.853 177.727C392.515 178.091 392.073 178.273 391.527 178.273C391.007 178.273 390.565 178.104 390.201 177.766C389.863 177.402 389.694 176.947 389.694 176.401V151.012C389.694 150.466 389.863 150.024 390.201 149.686C390.539 149.322 390.981 149.14 391.527 149.14C392.073 149.14 392.515 149.322 392.853 149.686C393.217 150.05 393.399 150.492 393.399 151.012V160.528C394.023 159.592 394.933 158.786 396.129 158.11C397.325 157.434 398.599 157.096 399.951 157.096ZM399.522 174.958C400.718 174.958 401.797 174.646 402.759 174.022C403.721 173.372 404.462 172.501 404.982 171.409C405.528 170.291 405.801 169.056 405.801 167.704C405.801 166.352 405.528 165.13 404.982 164.038C404.462 162.946 403.721 162.088 402.759 161.464C401.797 160.84 400.718 160.528 399.522 160.528C398.3 160.528 397.208 160.84 396.246 161.464C395.284 162.088 394.53 162.946 393.984 164.038C393.464 165.104 393.204 166.326 393.204 167.704C393.204 169.082 393.464 170.317 393.984 171.409C394.53 172.501 395.284 173.372 396.246 174.022C397.208 174.646 398.3 174.958 399.522 174.958ZM441.041 149.14C441.587 149.14 442.029 149.322 442.367 149.686C442.731 150.024 442.913 150.466 442.913 151.012V176.128C442.913 176.648 442.731 177.09 442.367 177.454C442.029 177.818 441.587 178 441.041 178C440.495 178 440.053 177.831 439.715 177.493C439.377 177.129 439.208 176.674 439.208 176.128V175.036C438.558 175.972 437.635 176.765 436.439 177.415C435.269 178.065 434.008 178.39 432.656 178.39C430.888 178.39 429.289 177.935 427.859 177.025C426.429 176.115 425.298 174.854 424.466 173.242C423.634 171.604 423.218 169.771 423.218 167.743C423.218 165.715 423.621 163.895 424.427 162.283C425.259 160.645 426.39 159.371 427.82 158.461C429.25 157.551 430.823 157.096 432.539 157.096C433.917 157.096 435.191 157.382 436.361 157.954C437.531 158.526 438.48 159.267 439.208 160.177V151.012C439.208 150.466 439.377 150.024 439.715 149.686C440.053 149.322 440.495 149.14 441.041 149.14ZM433.085 174.958C434.307 174.958 435.386 174.646 436.322 174.022C437.284 173.398 438.025 172.54 438.545 171.448C439.091 170.356 439.364 169.121 439.364 167.743C439.364 166.391 439.091 165.169 438.545 164.077C438.025 162.959 437.284 162.088 436.322 161.464C435.386 160.84 434.307 160.528 433.085 160.528C431.863 160.528 430.771 160.84 429.809 161.464C428.873 162.088 428.132 162.959 427.586 164.077C427.066 165.169 426.806 166.391 426.806 167.743C426.806 169.121 427.066 170.356 427.586 171.448C428.132 172.54 428.873 173.398 429.809 174.022C430.771 174.646 431.863 174.958 433.085 174.958ZM466.362 167.002C466.336 167.47 466.141 167.873 465.777 168.211C465.413 168.523 464.984 168.679 464.49 168.679H450.762C450.944 170.577 451.659 172.098 452.907 173.242C454.181 174.386 455.728 174.958 457.548 174.958C458.796 174.958 459.81 174.776 460.59 174.412C461.37 174.048 462.059 173.58 462.657 173.008C463.047 172.774 463.424 172.657 463.788 172.657C464.23 172.657 464.594 172.813 464.88 173.125C465.192 173.437 465.348 173.801 465.348 174.217C465.348 174.763 465.088 175.257 464.568 175.699C463.814 176.453 462.813 177.09 461.565 177.61C460.317 178.13 459.043 178.39 457.743 178.39C455.637 178.39 453.778 177.948 452.166 177.064C450.58 176.18 449.345 174.945 448.461 173.359C447.603 171.773 447.174 169.979 447.174 167.977C447.174 165.793 447.616 163.882 448.5 162.244C449.41 160.58 450.593 159.306 452.049 158.422C453.531 157.538 455.117 157.096 456.807 157.096C458.471 157.096 460.031 157.525 461.487 158.383C462.943 159.241 464.113 160.424 464.997 161.932C465.881 163.44 466.336 165.13 466.362 167.002ZM456.807 160.528C455.351 160.528 454.09 160.944 453.024 161.776C451.958 162.582 451.256 163.843 450.918 165.559H462.423V165.247C462.293 163.869 461.669 162.738 460.551 161.854C459.459 160.97 458.211 160.528 456.807 160.528ZM486.074 157.369C486.568 157.369 486.984 157.538 487.322 157.876C487.66 158.188 487.829 158.565 487.829 159.007C487.829 159.241 487.738 159.566 487.556 159.982L480.146 176.83C479.99 177.168 479.769 177.441 479.483 177.649C479.197 177.857 478.885 177.974 478.547 178C478.131 178.052 477.741 177.974 477.377 177.766C477.039 177.558 476.779 177.246 476.597 176.83L469.187 159.982C469.057 159.592 468.992 159.267 468.992 159.007C468.992 158.591 469.161 158.214 469.499 157.876C469.837 157.538 470.279 157.369 470.825 157.369C471.215 157.369 471.566 157.473 471.878 157.681C472.19 157.863 472.437 158.149 472.619 158.539L478.508 172.228L484.397 158.539C484.761 157.759 485.32 157.369 486.074 157.369ZM509.59 167.002C509.564 167.47 509.369 167.873 509.005 168.211C508.641 168.523 508.212 168.679 507.718 168.679H493.99C494.172 170.577 494.887 172.098 496.135 173.242C497.409 174.386 498.956 174.958 500.776 174.958C502.024 174.958 503.038 174.776 503.818 174.412C504.598 174.048 505.287 173.58 505.885 173.008C506.275 172.774 506.652 172.657 507.016 172.657C507.458 172.657 507.822 172.813 508.108 173.125C508.42 173.437 508.576 173.801 508.576 174.217C508.576 174.763 508.316 175.257 507.796 175.699C507.042 176.453 506.041 177.09 504.793 177.61C503.545 178.13 502.271 178.39 500.971 178.39C498.865 178.39 497.006 177.948 495.394 177.064C493.808 176.18 492.573 174.945 491.689 173.359C490.831 171.773 490.402 169.979 490.402 167.977C490.402 165.793 490.844 163.882 491.728 162.244C492.638 160.58 493.821 159.306 495.277 158.422C496.759 157.538 498.345 157.096 500.035 157.096C501.699 157.096 503.259 157.525 504.715 158.383C506.171 159.241 507.341 160.424 508.225 161.932C509.109 163.44 509.564 165.13 509.59 167.002ZM500.035 160.528C498.579 160.528 497.318 160.944 496.252 161.776C495.186 162.582 494.484 163.843 494.146 165.559H505.651V165.247C505.521 163.869 504.897 162.738 503.779 161.854C502.687 160.97 501.439 160.528 500.035 160.528ZM517.909 176.128C517.909 176.648 517.727 177.09 517.363 177.454C516.999 177.818 516.557 178 516.037 178C515.517 178 515.075 177.818 514.711 177.454C514.373 177.09 514.204 176.648 514.204 176.128V151.012C514.204 150.492 514.386 150.05 514.75 149.686C515.114 149.322 515.556 149.14 516.076 149.14C516.596 149.14 517.025 149.322 517.363 149.686C517.727 150.05 517.909 150.492 517.909 151.012V176.128ZM542.719 167.782C542.719 169.81 542.264 171.63 541.354 173.242C540.444 174.854 539.196 176.115 537.61 177.025C536.05 177.935 534.321 178.39 532.423 178.39C530.525 178.39 528.783 177.935 527.197 177.025C525.637 176.115 524.402 174.854 523.492 173.242C522.582 171.63 522.127 169.81 522.127 167.782C522.127 165.754 522.582 163.921 523.492 162.283C524.402 160.645 525.637 159.371 527.197 158.461C528.783 157.551 530.525 157.096 532.423 157.096C534.321 157.096 536.05 157.551 537.61 158.461C539.196 159.371 540.444 160.645 541.354 162.283C542.264 163.921 542.719 165.754 542.719 167.782ZM539.014 167.782C539.014 166.378 538.715 165.13 538.117 164.038C537.545 162.92 536.752 162.062 535.738 161.464C534.75 160.84 533.645 160.528 532.423 160.528C531.201 160.528 530.083 160.84 529.069 161.464C528.081 162.062 527.288 162.92 526.69 164.038C526.118 165.13 525.832 166.378 525.832 167.782C525.832 169.16 526.118 170.395 526.69 171.487C527.288 172.579 528.081 173.437 529.069 174.061C530.083 174.659 531.201 174.958 532.423 174.958C533.645 174.958 534.75 174.659 535.738 174.061C536.752 173.437 537.545 172.579 538.117 171.487C538.715 170.395 539.014 169.16 539.014 167.782ZM557.284 157.213C559.052 157.213 560.651 157.668 562.081 158.578C563.511 159.462 564.629 160.71 565.435 162.322C566.267 163.934 566.683 165.754 566.683 167.782C566.683 169.81 566.267 171.63 565.435 173.242C564.629 174.828 563.511 176.076 562.081 176.986C560.651 177.896 559.078 178.351 557.362 178.351C556.01 178.351 554.749 178.052 553.579 177.454C552.409 176.856 551.46 176.128 550.732 175.27V183.928C550.732 184.448 550.55 184.89 550.186 185.254C549.848 185.618 549.406 185.8 548.86 185.8C548.34 185.8 547.898 185.618 547.534 185.254C547.196 184.916 547.027 184.474 547.027 183.928V159.397C547.027 158.851 547.196 158.396 547.534 158.032C547.872 157.668 548.314 157.486 548.86 157.486C549.406 157.486 549.848 157.668 550.186 158.032C550.55 158.396 550.732 158.851 550.732 159.397V160.528C551.356 159.618 552.266 158.838 553.462 158.188C554.658 157.538 555.932 157.213 557.284 157.213ZM556.855 174.919C558.051 174.919 559.13 174.607 560.092 173.983C561.054 173.359 561.795 172.514 562.315 171.448C562.861 170.356 563.134 169.134 563.134 167.782C563.134 166.43 562.861 165.221 562.315 164.155C561.795 163.063 561.054 162.205 560.092 161.581C559.13 160.957 558.051 160.645 556.855 160.645C555.633 160.645 554.541 160.957 553.579 161.581C552.617 162.179 551.863 163.024 551.317 164.116C550.797 165.208 550.537 166.43 550.537 167.782C550.537 169.134 550.797 170.356 551.317 171.448C551.863 172.54 552.617 173.398 553.579 174.022C554.541 174.62 555.633 174.919 556.855 174.919ZM588.923 167.002C588.897 167.47 588.702 167.873 588.338 168.211C587.974 168.523 587.545 168.679 587.051 168.679H573.323C573.505 170.577 574.22 172.098 575.468 173.242C576.742 174.386 578.289 174.958 580.109 174.958C581.357 174.958 582.371 174.776 583.151 174.412C583.931 174.048 584.62 173.58 585.218 173.008C585.608 172.774 585.985 172.657 586.349 172.657C586.791 172.657 587.155 172.813 587.441 173.125C587.753 173.437 587.909 173.801 587.909 174.217C587.909 174.763 587.649 175.257 587.129 175.699C586.375 176.453 585.374 177.09 584.126 177.61C582.878 178.13 581.604 178.39 580.304 178.39C578.198 178.39 576.339 177.948 574.727 177.064C573.141 176.18 571.906 174.945 571.022 173.359C570.164 171.773 569.735 169.979 569.735 167.977C569.735 165.793 570.177 163.882 571.061 162.244C571.971 160.58 573.154 159.306 574.61 158.422C576.092 157.538 577.678 157.096 579.368 157.096C581.032 157.096 582.592 157.525 584.048 158.383C585.504 159.241 586.674 160.424 587.558 161.932C588.442 163.44 588.897 165.13 588.923 167.002ZM579.368 160.528C577.912 160.528 576.651 160.944 575.585 161.776C574.519 162.582 573.817 163.843 573.479 165.559H584.984V165.247C584.854 163.869 584.23 162.738 583.112 161.854C582.02 160.97 580.772 160.528 579.368 160.528ZM603.404 157.096C604.08 157.096 604.665 157.278 605.159 157.642C605.653 157.98 605.9 158.409 605.9 158.929C605.9 159.553 605.731 160.034 605.393 160.372C605.081 160.684 604.691 160.84 604.223 160.84C603.989 160.84 603.638 160.762 603.17 160.606C602.624 160.424 602.195 160.333 601.883 160.333C601.077 160.333 600.284 160.619 599.504 161.191C598.75 161.737 598.126 162.504 597.632 163.492C597.164 164.454 596.93 165.533 596.93 166.729V176.128C596.93 176.648 596.748 177.09 596.384 177.454C596.046 177.818 595.604 178 595.058 178C594.512 178 594.07 177.831 593.732 177.493C593.394 177.129 593.225 176.674 593.225 176.128V159.436C593.225 158.916 593.394 158.474 593.732 158.11C594.096 157.746 594.538 157.564 595.058 157.564C595.604 157.564 596.046 157.746 596.384 158.11C596.748 158.474 596.93 158.916 596.93 159.436V161.425C597.502 160.151 598.36 159.124 599.504 158.344C600.648 157.538 601.948 157.122 603.404 157.096Z" fill="#FD6041"/>
</svg>
