<svg width="2098" height="2514" viewBox="0 0 2098 2514" fill="none" xmlns="http://www.w3.org/2000/svg">
<path d="M1515 1335C1515 1335 412 1323 404 1323.5C396 1324 393.5 1326.5 388.5 1329C383.5 1331.5 381 1337.5 377.5 1343C374 1348.5 372 1362.5 372.5 1372.5C373 1382.5 435 2010 435 2010C435 2010 484 2027 496 2031C508 2035 521.5 2035.5 529.5 2039C537.5 2042.5 554.5 2051 554.5 2051C554.5 2051 1104 2054.5 1137 2055.5C1170 2056.5 1504 2073 1519 2071.5C1534 2070 1543 2070 1549 2067.5C1555 2065 1559.5 2062 1565 2054C1570.5 2046 1570.5 2034.5 1570.5 2034.5C1570.5 2034.5 1576 2032 1578.5 2025.5C1581 2019 1603 1907.5 1603 1907.5C1603 1907.5 1586.5 1907.5 1581 1909C1575.5 1910.5 1565 1914 1565 1914L1558.5 1389.5L1554 1357L1539 1341.5L1515 1335Z" fill="#C7C7C7" stroke="#C7C7C7"/>
<path d="M975 1647.5C969 1656 968.5 1666.5 968.5 1666.5C968.5 1666.5 990 1667.5 996 1657.5C1002 1647.5 1002 1634.5 1002 1634.5C1002 1634.5 981 1639 975 1647.5Z" fill="#EFEFEF"/>
<path d="M919 1702C919.5 1690 929 1679 929 1679L939.5 1667.5C939.5 1667.5 950.5 1661 959.5 1666.5C968.5 1672 975 1679 975 1679C975 1679 980 1668.5 991 1667.5C1002 1666.5 1004 1665 1013 1667.5C1022 1670 1030.5 1679 1030.5 1679C1030.5 1679 1017.5 1688 1013 1694.5C1008.5 1701 1011 1712 1017.5 1717.5C1024 1723 1030.5 1732 1030.5 1732L1013 1755.5C1013 1755.5 1006.5 1765 996 1765C985.5 1765 975 1755.5 975 1755.5C975 1755.5 968.5 1765 959.5 1765C950.5 1765 944 1755.5 944 1755.5C944 1755.5 934.5 1744 929 1732C923.5 1720 918.5 1714 919 1702Z" fill="#EFEFEF"/>
<path d="M975 1647.5C969 1656 968.5 1666.5 968.5 1666.5C968.5 1666.5 990 1667.5 996 1657.5C1002 1647.5 1002 1634.5 1002 1634.5C1002 1634.5 981 1639 975 1647.5Z" stroke="#EFEFEF"/>
<path d="M919 1702C919.5 1690 929 1679 929 1679L939.5 1667.5C939.5 1667.5 950.5 1661 959.5 1666.5C968.5 1672 975 1679 975 1679C975 1679 980 1668.5 991 1667.5C1002 1666.5 1004 1665 1013 1667.5C1022 1670 1030.5 1679 1030.5 1679C1030.5 1679 1017.5 1688 1013 1694.5C1008.5 1701 1011 1712 1017.5 1717.5C1024 1723 1030.5 1732 1030.5 1732L1013 1755.5C1013 1755.5 1006.5 1765 996 1765C985.5 1765 975 1755.5 975 1755.5C975 1755.5 968.5 1765 959.5 1765C950.5 1765 944 1755.5 944 1755.5C944 1755.5 934.5 1744 929 1732C923.5 1720 918.5 1714 919 1702Z" stroke="#EFEFEF"/>
<path d="M1565 1921C1565 1930.77 1566.6 1940.28 1566.6 1950.25C1566.6 1958.92 1566.6 1967.58 1566.6 1976.25C1566.6 1984.39 1568.2 1992.8 1568.2 2001.03C1568.2 2008.59 1569 2017.01 1569 2025" stroke="#EFEFEF" stroke-linecap="round" stroke-linejoin="round"/>
<path d="M348.5 1878.5C368.5 1880 421.5 1882.5 421.5 1882.5C421.5 1882.5 432 2009 434 2011C436 2013 500.5 2033 505 2034C509.5 2035 521.5 2036 527.5 2038.5C533.5 2041 553 2052 553 2052L921.5 2054.5C921.5 2054.5 1141.5 2055.5 1186 2058C1230.5 2060.5 1513.5 2072 1523.5 2072C1533.5 2072 1544 2070 1550 2067.5C1556 2065 1558 2062.5 1562 2059C1566 2055.5 1566.5 2053.5 1569 2047.5C1571.41 2041.72 1571.5 2035.49 1571.5 2035.03C1571.45 2035.04 1571.5 2035 1571.5 2035C1571.5 2035 1571.5 2035.01 1571.5 2035.03C1571.6 2034.99 1572.2 2034.6 1575 2032.5C1579 2029.5 1577 2029.5 1579 2026C1581 2022.5 1600.5 1909 1604 1906.5C1607.5 1904 1663 1906.5 1681.5 1906.5C1700 1906.5 1711 1908.5 1723 1906.5C1735 1904.5 1749.5 1900 1760.5 1897.5C1771.5 1895 1822 1897.5 1842.5 1897.5C1863 1897.5 1886 1903 1906 1910.5C1926 1918 1952 1931.5 1962.5 1942.5C1973 1953.5 1979.5 1971.5 1983.5 1976.5C1987.5 1981.5 2009 1997.5 2011 2001L2011.17 2001.29C2013.41 2005.18 2021.01 2018.4 2021.5 2052.5C2022 2087.5 2006.5 2134.5 2006.5 2139C2006.5 2143.5 2007.5 2154 2003.5 2161C1999.5 2168 1952 2248 1934 2260C1916 2272 1908 2273 1905.5 2275C1903 2277 1890 2286 1885.5 2290C1881 2294 1868 2311.5 1854 2322C1840 2332.5 1800 2346 1800 2346C1800 2346 1772.5 2361.5 1747.5 2369.5C1722.5 2377.5 1694 2393 1689.5 2387C1685 2381 1664.5 2376.5 1658 2375C1651.5 2373.5 1637.5 2366 1629.5 2361C1621.5 2356 1602.5 2345.5 1578.5 2344.5C1554.5 2343.5 1529 2350 1521 2353.5C1513 2357 1468 2380.5 1468 2380.5C1468 2380.5 1445 2392 1435 2392H1337C1330 2392 1306.5 2400.5 1298 2401C1289.5 2401.5 1228 2399 1222 2397C1216 2395 1196 2374 1187.5 2368.5C1179 2363 1178 2364 1170 2360C1162 2356 1154.5 2347 1143.5 2341C1132.5 2335 1089 2321 1074 2316C1059 2311 1031 2294 1026.5 2294.5C1023.97 2294.78 1012 2320 1004.5 2330.5C997 2341 983.167 2355.49 979 2359C969.5 2367 956 2396 951.5 2398.5C947 2401 914 2395 892.5 2393.5C871 2392 820 2384 796.5 2380.5C773 2377 715.5 2368.5 677 2363.5C638.5 2358.5 498.5 2329 471 2326C443.5 2323 390.5 2322 361 2316C331.5 2310 280.5 2290 266.5 2283.5C252.5 2277 196 2233 182.5 2221C169 2209 153 2185 153 2185C153 2185 129.5 2159.5 116.5 2148.5C103.5 2137.5 81 2121 70.4999 2109C59.9999 2097 50.0001 2073.5 46.9999 2060C43.9998 2046.5 42.9998 2018 49.4998 2000.5C55.9998 1983 59.9999 1982.5 65.4999 1973.5C70.9999 1964.5 75.4999 1954 79.9999 1945C84.4999 1936 92.4999 1915.5 97.9999 1909.5C103.5 1903.5 133.5 1884 141.5 1881.5C149.5 1879 184.5 1873.5 195.5 1871.5C206.5 1869.5 245 1864 272.5 1865C300 1866 328.5 1877 348.5 1878.5Z" fill="#435772"/>
<path d="M387.024 1989.22C389.994 1990.45 393.032 1992.7 396.054 1993.56C397.802 1994.06 399.916 1995.53 401.867 1995.53C406.031 1995.53 409.401 1999.3 413.087 2000.35C416.309 2001.27 420.774 2003.97 423.145 2006.1C424.733 2007.52 427.236 2007.36 428.768 2008.74C429.919 2009.77 433.074 2009.24 433.743 2010.57" stroke="#86A1C2" stroke-width="2" stroke-linecap="round" stroke-linejoin="round"/>
<path d="M553.459 2051.33C558.892 2054.03 565.121 2056.25 569.762 2059.84C571.837 2061.45 573.643 2063.34 576.089 2064.43C578.544 2065.51 581.278 2066.89 583.389 2068.52C584.88 2069.68 586.809 2070.97 588.498 2071.81C590.838 2072.98 592.556 2074.92 594.825 2076.18C596.784 2077.26 598.162 2079.33 600.286 2080.06C602.69 2080.89 605.228 2081.85 607.478 2082.97C608.857 2083.66 611.895 2084.85 612.831 2086.02C613.504 2086.86 614.942 2086.99 615.751 2087.72C616.689 2088.55 617.9 2090.03 618.941 2090.63C619.745 2091.08 620.342 2092.02 620.996 2092.68C621.693 2093.37 622.933 2093.51 623.537 2094.27C624.864 2095.92 627.332 2096.43 628.674 2098.15C631.92 2102.31 637.25 2104.57 641.273 2107.85C645.479 2111.28 648.643 2116.54 654.44 2117.82C656.504 2118.28 658.561 2120.43 660.523 2121.41C662.977 2122.63 664.962 2124.62 667.336 2125.94C669.402 2127.08 672.401 2128.38 674.149 2129.93C675.165 2130.83 679.69 2133.17 680.962 2133.32C682.639 2133.52 685.212 2135.71 686.802 2136.5C689.347 2137.77 691.3 2140.29 694.102 2141.09C698.736 2142.41 702.634 2146.43 706.998 2148.36C711.855 2150.52 715.042 2155.3 720.003 2157.21C722.44 2158.14 724.431 2160.1 726.708 2161.36C728.432 2162.31 731.614 2164.66 732.656 2166.32C734.746 2169.65 739.961 2171.49 743.254 2173.22C747.697 2175.55 751.021 2178.76 755.907 2180.39" stroke="#86A1C2" stroke-width="2" stroke-linecap="round" stroke-linejoin="round"/>
<path d="M754.447 2179.42C757.184 2181.08 759.762 2182.34 762.45 2183.68C765.247 2185.07 768.779 2185.98 771.237 2187.88C773.68 2189.78 777.424 2190.08 779.753 2192.03C781.563 2193.55 785.601 2195.4 787.783 2195.89C789.287 2196.22 791.156 2197.08 792.514 2197.85C794.71 2199.11 797.414 2199.44 799.598 2200.77C803.536 2203.15 808.249 2205.02 812.575 2206.59C818.602 2208.77 824.761 2211.22 831.068 2212.9C837.982 2214.73 844.972 2215.81 851.534 2218.72C857.877 2221.53 865.342 2221.86 871.487 2225.27C873.969 2226.64 876.449 2227.58 879.03 2228.8C881.617 2230.02 884.516 2230.21 887.06 2231.33C892.561 2233.77 897.838 2235.93 903.12 2238.85C907.986 2241.55 912.574 2243.82 917.476 2246.27C919.664 2247.36 921.851 2247.83 924.046 2249.04C925.914 2250.08 929.982 2251.96 932.076 2252.2C933.607 2252.37 936.213 2253.25 937.645 2253.89C939.165 2254.58 941.019 2254.67 942.512 2255.35C945.527 2256.72 950.064 2258.26 953.38 2258.5C955.984 2258.7 959.566 2260.04 962.032 2260.93C963.263 2261.38 964.856 2261.84 966.141 2261.9C968.682 2262.03 971.231 2263.85 973.549 2264.7C979.286 2266.82 984.78 2269.94 990.474 2272.47C995.31 2274.61 1000.33 2276.63 1005.07 2278.99C1007.39 2280.14 1009.44 2281.49 1011.67 2282.76C1013.78 2283.97 1015.07 2285.67 1017.24 2286.75C1020.94 2288.6 1024.35 2291.16 1027.95 2292.95" stroke="#86A1C2" stroke-width="2" stroke-linecap="round" stroke-linejoin="round"/>
<path d="M1030.11 2293.51C1036.2 2293.51 1040.17 2291.96 1045.76 2290.72C1047.33 2290.38 1049.03 2289.95 1050.24 2288.99C1051.54 2287.95 1054.2 2289.61 1055.5 2288.57C1057.87 2286.69 1062.75 2287.09 1065.67 2285.47C1068.12 2284.12 1072.69 2283.21 1075.42 2283.11C1079.46 2282.95 1083.16 2281.22 1087.43 2281.22C1091.14 2281.22 1094.55 2280.27 1098.39 2280.27C1107.77 2280.27 1116.55 2277.7 1125.84 2276.54C1134.28 2275.49 1142.8 2271.76 1151.5 2271.76C1160.75 2271.76 1169.41 2266.09 1179 2266.09C1183.06 2266.09 1189.24 2264.95 1193.17 2263.73C1196.2 2262.78 1201.91 2263.13 1204.39 2261.15C1206.77 2259.25 1211.55 2260.67 1214.56 2259C1216.79 2257.76 1223.16 2257.85 1224.52 2256.16C1225.98 2254.34 1231.85 2256.08 1233.79 2254.53C1235.97 2252.8 1240.25 2253.41 1243.01 2252.8C1249.66 2251.33 1257.05 2249.07 1263.87 2249.07C1271.84 2249.07 1279.66 2244.34 1287.58 2244.34C1295.45 2244.34 1303.12 2240.99 1310.81 2240.56C1315.02 2240.33 1319.48 2238.69 1323.61 2237.78C1327.66 2236.88 1332.63 2237.72 1336.42 2236.04C1339.42 2234.71 1344.08 2234.71 1347.32 2234C1351.6 2233.05 1355.79 2231.77 1360.07 2231.05C1366.6 2229.97 1373.64 2227.24 1380.04 2224.96C1387.4 2222.34 1395.59 2222.01 1402.8 2218.61C1409.26 2215.56 1416.22 2213.92 1422.71 2211.04C1428.3 2208.57 1436.01 2205.64 1440.52 2201.59C1442.75 2199.58 1447.7 2198.8 1450.64 2197.96C1453.73 2197.08 1454.88 2194.29 1457.06 2192.55C1457.56 2192.16 1460.49 2191.64 1461.17 2191.45C1462.8 2190.99 1464.45 2189.98 1465.91 2189.56C1467.87 2189 1472.59 2185.96 1473.92 2184.31C1475.46 2182.38 1480.14 2181.12 1482.46 2179.84C1485.69 2178.05 1489.6 2176.14 1492.41 2173.96C1495.15 2171.83 1499.27 2170.04 1502.37 2168.5C1506.3 2166.53 1509.1 2163.52 1512.8 2161.35C1515.29 2159.89 1518.73 2158.49 1520.86 2156.83C1523.32 2154.93 1527.06 2154.7 1529.13 2152.84C1531.86 2150.4 1536.18 2150.02 1538.83 2147.38C1540.15 2146.06 1540.27 2144.73 1541.73 2143.6C1542.8 2142.76 1545.28 2141.71 1545.99 2140.81C1548.06 2138.24 1553.66 2137.69 1556.21 2135.4C1557.86 2133.93 1562.15 2131.46 1564.49 2130.94C1571.29 2129.43 1576.93 2123.38 1583.45 2120.49C1600.01 2113.15 1617.11 2107.75 1634.4 2101.79C1642.3 2099.06 1648.77 2093.72 1656.74 2090.97C1660.45 2089.68 1664.3 2088.02 1667.85 2086.45C1671.54 2084.81 1675.44 2085.57 1679.18 2084.51C1692.13 2080.82 1706.67 2078.43 1719.53 2074.16" stroke="#86A1C2" stroke-width="2" stroke-linecap="round" stroke-linejoin="round"/>
<path d="M580.5 1295C577.5 1300.5 566 1323.5 566 1323.5C566 1323.5 1506.5 1334.5 1516 1335C1525.5 1335.5 1534 1339 1540.5 1343C1547 1347 1550.5 1349.5 1553.5 1355.5C1556.5 1361.5 1557.5 1370 1558.5 1376C1559.5 1382 1563.5 1833 1563.5 1833C1563.5 1833 1572 1845.5 1575.5 1852.5C1579 1859.5 1581.5 1869 1581.5 1876.5C1581.5 1884 1579 1890 1575.5 1896C1572 1902 1565.5 1911.5 1565.5 1911.5C1565.5 1911.5 1576 1911 1581.5 1909.5C1587 1908 1600.5 1905 1605.5 1905H1626H1673.5H1728C1728 1905 1751.5 1902 1757 1898.5C1762.5 1895 1769.5 1881 1773.5 1876.5C1777.5 1872 1792 1864 1795.5 1859.5C1799 1855 1831.5 1780.5 1834 1775.5C1836.5 1770.5 1847.5 1769.5 1850 1766.5C1852.5 1763.5 1857.5 1754.5 1856.5 1749C1855.5 1743.5 1857 1731 1859.5 1724.5C1862 1718 1874 1710.5 1874 1710.5C1874 1710.5 1881.5 1700 1884.5 1692C1887.5 1684 1887.5 1671 1884.5 1665C1881.5 1659 1868.5 1639.5 1866.5 1632C1864.5 1624.5 1871.5 1611.5 1874 1604.5C1876.5 1597.5 1878 1583 1878.5 1575.5C1879 1568 1874 1524.5 1874 1518C1874 1511.5 1884 1499.5 1886 1496C1888 1492.5 1888.5 1483 1888.5 1479C1888.5 1475 1879 1458.5 1877 1451.5C1875 1444.5 1876 1432.5 1874 1423C1872 1413.5 1860.5 1396 1856.5 1390C1852.5 1384 1839 1353.5 1834 1339C1834 1339 1804 1258.5 1800.5 1240.5C1797 1222.5 1796.5 1202.5 1796.5 1202.5C1796.5 1202.5 1795.5 1182 1792 1165.5C1788.5 1149 1783 1136 1778.5 1125C1774 1114 1763 1073.5 1762 1068C1761 1062.5 1759.5 1032.5 1757.5 1022.5L1757.27 1021.34C1755.2 1010.99 1751.31 991.518 1746.5 979C1741.5 966 1738.5 963 1732 955.5L1731.41 954.818C1724.91 947.32 1715.44 936.395 1713.5 933C1711.5 929.5 1707.5 919 1703.5 911.5C1699.5 904 1686 891 1679 884.5C1672 878 1652 859.5 1645.5 854.5C1639 849.5 1628.5 842.5 1618.5 834.5C1608.5 826.5 1587 804.5 1587 804.5C1587 804.5 1570.5 789.5 1561.5 787C1552.5 784.5 1546.5 787 1542.5 789.5C1538.5 792 1534.5 796.5 1534.5 800.5C1534.5 804.5 1536.5 812.5 1534.5 816.5C1532.5 820.5 1513 836.5 1508 839C1503 841.5 1493.5 842.5 1487 842.5C1480.5 842.5 1475 839 1470 836.5C1465 834 1440 832.5 1433.5 834.5L1432.99 834.657C1426.61 836.626 1419.29 838.883 1411.5 834.5C1403.5 830 1394.5 823.5 1394.5 823.5C1394.5 823.5 1386 836.5 1382 839C1378 841.5 1363 851.5 1354 854.5C1345 857.5 1327 858.5 1316 862.5C1305 866.5 1292.5 870.5 1284.5 872.5C1276.5 874.5 1267 877 1258.5 879C1250 881 1230.5 885 1223 884C1215.5 883 1209 884 1200.5 879C1192 874 1176.5 866.5 1164 858.5L1163.45 858.147C1150.51 849.87 1116.85 828.328 1106.5 816.5C1096 804.5 1070.5 772 1070.5 772C1070.5 772 1071 779 1073 784.5C1075 790 1079 805.5 1081.5 816.5C1084 827.5 1086 839 1084 846.5C1082 854 1073 859.5 1060 866.5C1047 873.5 1021.85 883.231 1018 884C1010.5 885.5 1007 884 997.5 887.5C988 891 978.5 897 975.5 897C972.5 897 944 879 937.5 879C931 879 923 881 916.5 875C910 869 890.5 841 885.5 839C880.5 837 866 832 861.5 827.5C857 823 856 816.5 854 811.5C852 806.5 848 806.5 848 806.5C842 805 841.5 793 841.5 793C841.5 793 839.5 790 833.5 793C827.5 796 822.5 799 818 802C813.5 805 794.5 824.5 786.5 832C778.5 839.5 767 839 756 846.5C745 854 737 869 728 879C719 889 716 909.5 714 914.5C712 919.5 705 929 703 935C701 941 698 957 696 962.5C694 968 689 974 686 981C683 988 682 1002 682 1002C682 1002 656 1068.5 652 1079.5C648 1090.5 644.5 1114 640.5 1122C636.5 1130 622.5 1156.5 619 1163.5C615.5 1170.5 615.5 1183.5 614 1189.5C612.5 1195.5 608 1202.5 604 1208C600 1213.5 597.5 1237.5 595.5 1244C593.5 1250.5 580.5 1271 580.5 1277C580.5 1283 583.5 1289.5 580.5 1295Z" fill="#B9A0E4"/>
<path d="M723.735 1048.27C724.022 1060.04 730.279 1069.14 730.279 1080.99C730.279 1091.89 730.279 1102.8 730.279 1113.71C730.279 1124.62 730.279 1135.52 730.279 1146.43C730.279 1157.03 725.604 1166.89 725.604 1177.75C725.604 1183.12 723.735 1188.17 723.735 1193.17C723.735 1198.42 725.604 1202.55 725.604 1207.66C725.604 1218.94 727.001 1229.61 729.396 1240.38C730.55 1245.58 732.789 1251.44 733.083 1256.74C733.243 1259.61 734.293 1261.95 734.901 1264.69C735.4 1266.93 736.823 1269.9 736.823 1272.17C736.823 1275.2 739.699 1283.94 741.705 1286.45C743.233 1288.36 744.02 1290.73 745.964 1292.48C747.361 1293.73 749.11 1295.34 749.911 1296.94" stroke="#776596" stroke-width="2" stroke-linecap="round" stroke-linejoin="round"/>
<path d="M949.039 908.036C946.435 909.93 943.165 911.053 940.833 912.919C938.64 914.673 937.105 916.889 934.6 918.32C930.892 920.439 928.24 925.841 924.94 928.811C921.515 931.894 919.157 936.005 917.253 940.29C915.668 943.856 913.271 950.487 910.242 952.91C902.028 959.481 896.285 969.962 887.337 975.555C883.977 977.655 878.664 981.047 876.119 984.229C874.988 985.642 872.265 987.25 870.717 988.643C869.038 990.155 867.975 992.707 866.303 994.045C863.401 996.366 862.239 1000.86 859.499 1003.6C856.459 1006.64 854.759 1012.42 852.955 1016.48C851.448 1019.87 849.008 1025.25 849.008 1029.1C849.008 1033.62 845.268 1038.45 845.268 1043.13C845.268 1046.94 841.755 1050.96 841.529 1054.81C841.343 1057.97 840.895 1066.59 838.932 1069.04C837.674 1070.61 838.385 1073.93 837.062 1075.59C836.299 1076.54 835.379 1080.31 835.036 1081.51C833.738 1086.05 830.31 1090.86 830.31 1095.48C830.31 1099.08 827.952 1106.61 825.843 1109.24C823.54 1112.12 822.66 1118.92 821.844 1122.59C820.973 1126.51 819.016 1133.2 816.495 1136.35C813.773 1139.76 814.601 1146.95 812.755 1151.1C810.93 1155.21 809.721 1160.32 808.756 1164.66C807.634 1169.71 804.343 1173.77 803.251 1178.68C801.386 1187.07 797.122 1195.98 796.655 1204.39C796.366 1209.58 793.85 1214.26 793.85 1219.82C793.85 1222.33 793.037 1224.76 792.915 1226.83C792.84 1228.11 792.454 1232.62 791.513 1233.37C789.848 1234.7 790.111 1245.04 790.111 1247.39C790.111 1252.52 788.241 1257.12 788.241 1262.35C788.241 1267.41 785.436 1272.69 785.436 1277.78C785.436 1283.08 785.436 1288.37 785.436 1293.67C785.436 1304.25 783.567 1314.27 783.567 1324.99" stroke="#776596" stroke-width="2" stroke-linecap="round" stroke-linejoin="round"/>
<path d="M1040.02 875.897C1044.04 878.823 1049.48 880.833 1053.01 884.359C1054.62 885.976 1056.24 887.592 1057.83 889.185C1059.49 890.838 1061.91 891.547 1063.61 893.058C1065.56 894.792 1068.35 896.152 1070.58 897.468C1073.15 898.979 1075.78 901.391 1077.97 903.367C1081.59 906.619 1086.12 909.129 1090.43 911.411C1095.58 914.142 1100.25 917.554 1105.44 920.29C1108.38 921.836 1111.59 922.557 1114.56 924.044C1117.04 925.283 1119.52 926.525 1122.07 927.797C1127.3 930.413 1132.38 933.221 1137.62 935.842C1140.46 937.261 1143.34 938.325 1146.2 939.596C1147.14 940.015 1148.64 940.525 1149.69 940.758C1150.89 941.025 1152.1 942.262 1153.17 942.396C1155.51 942.689 1157.6 943.855 1160.14 944.005C1162.38 944.137 1164.88 946.018 1167.12 946.15C1169.49 946.29 1172.05 948.295 1174.62 948.295C1177.16 948.295 1179.28 950.304 1181.59 950.44C1186.69 950.74 1191.86 953.122 1197.15 953.122C1202.42 953.122 1207.31 953.658 1212.7 953.658C1223.77 953.658 1234.79 954.194 1245.95 954.194C1248.63 954.194 1251.31 954.194 1253.99 954.194C1256.81 954.194 1259.63 953.122 1262.57 953.122C1263.37 953.122 1265.33 952.72 1266.06 952.317C1267.13 951.722 1269.08 952.639 1269.96 951.93C1271.16 950.972 1276.67 950.44 1278.39 950.44C1283.6 950.44 1289.94 950.468 1295.02 949.338C1299.87 948.259 1305.63 947.611 1310.06 945.078C1312.26 943.823 1314.84 943.866 1317.01 942.664C1318.58 941.788 1323.24 941.243 1324.25 939.983C1325.5 938.413 1329.79 939.315 1331.49 938.374C1333.47 937.273 1336.85 937.398 1339.02 937.004C1341.43 936.566 1343.77 936.106 1346.23 935.961C1347.08 935.911 1347.74 934.572 1348.62 934.322C1349.97 933.935 1353.94 932.493 1354.81 931.402C1356 929.915 1359.77 930.036 1361.25 928.185C1362.38 926.776 1365.35 924.519 1366.91 923.626C1371.7 920.891 1375.05 915.823 1380.82 914.539C1385.25 913.556 1389.39 910.37 1393.1 907.806C1398.08 904.354 1403.57 902.615 1408.71 899.762C1412.93 897.42 1415.7 893.34 1419.94 890.913C1420.88 890.378 1422.46 888.903 1423.34 888.113C1424.37 887.181 1425.72 887.033 1426.94 886.355C1428.41 885.538 1432.31 884.478 1433.91 884.478C1438.54 884.478 1442.5 880.379 1446.82 879.145C1449.09 878.496 1451.14 876.534 1453.19 875.361C1454.62 874.544 1457.85 872.585 1458.85 871.339C1459.36 870.701 1460.78 870.389 1461.41 869.879C1462.4 869.093 1463.05 867.943 1463.95 867.049C1465.43 865.567 1467.45 863.097 1468 861.18C1470.62 851.996 1482.57 850.444 1486.2 843.184" stroke="#776596" stroke-width="2" stroke-linecap="round" stroke-linejoin="round"/>
<path d="M1465.04 877.821C1466.15 882.763 1470.57 887.414 1470.84 892.327C1470.95 894.313 1471.56 901.316 1473.02 902.48C1475.13 904.175 1479.54 919.148 1479.54 922.063C1479.54 924.592 1480.46 929.954 1481.72 932.217C1483.27 935.003 1482.41 940.516 1484.22 942.774C1488.16 947.699 1487.53 956.706 1491.47 961.631C1494.63 965.581 1498.4 975.354 1499.77 980.166C1500.9 984.113 1506.08 994.204 1509.28 996.767C1513.81 1000.39 1515.54 1009.49 1519.03 1013.85C1522.95 1018.75 1526.19 1027.38 1529.18 1033.03C1532.07 1038.48 1537.3 1044.06 1538.94 1049.79C1540.94 1056.82 1547.31 1062.44 1549.09 1068.65C1550.92 1075.05 1556.01 1081.09 1556.42 1088.15C1556.64 1091.82 1561.56 1103.64 1564 1106.69C1571.62 1116.21 1573.42 1132.78 1576.65 1144.08C1580.58 1157.82 1581.56 1174.24 1575.28 1186.79" stroke="#776596" stroke-width="2" stroke-linecap="round" stroke-linejoin="round"/>
<path d="M1574.88 1185.58C1577.39 1198.45 1578.37 1211.81 1578.37 1225.27C1578.37 1231.66 1578.37 1238.06 1578.37 1244.46C1578.37 1247.44 1578.96 1251.14 1578.32 1254.05C1577.67 1256.97 1575.75 1260.68 1575.75 1263.65C1575.75 1265.44 1575.45 1270.21 1574.68 1271.93C1573.49 1274.61 1575.07 1278.67 1573.33 1280.85C1572.12 1282.36 1573.13 1288.3 1573.13 1290.25C1573.13 1293.15 1572.26 1295.8 1572.26 1298.97C1572.26 1311.39 1571.39 1324.57 1571.39 1336.48" stroke="#776596" stroke-width="2" stroke-linecap="round" stroke-linejoin="round"/>
<path d="M1571.39 1329.51C1571.39 1343.06 1572.26 1357.13 1572.26 1370.94C1572.26 1377.2 1574.01 1383.24 1574.01 1389.69C1574.01 1396.17 1574.88 1402.64 1574.88 1408.88C1574.88 1433.56 1579.24 1458.31 1579.24 1483.03C1579.24 1508.66 1580.11 1534.61 1580.11 1559.79C1580.11 1565.34 1581.53 1573.64 1578.8 1578.55C1576.64 1582.44 1574.88 1589.8 1574.88 1594.25C1574.88 1599.08 1569.93 1603.83 1569.64 1608.64C1569.41 1612.58 1565.55 1618.1 1561.79 1619.98" stroke="#776596" stroke-width="2" stroke-linecap="round" stroke-linejoin="round"/>
<path d="M1605.41 1523.16C1609.93 1511.57 1619.45 1503.75 1631.09 1500.43C1635.17 1499.26 1640.94 1494.12 1643.98 1491.07C1647.53 1487.52 1652.88 1484.04 1655.13 1479.54" stroke="#776596" stroke-width="2" stroke-linecap="round" stroke-linejoin="round"/>
<path d="M1582.73 1592.07C1588.24 1589.78 1591.62 1586.22 1596.68 1583.54C1600.37 1581.59 1604.74 1579.74 1608.46 1577.67C1617.06 1572.9 1626.2 1570.24 1635.45 1567.59C1643.12 1565.4 1652.25 1564.48 1659.49 1560.86C1663.38 1558.91 1667.22 1557.23 1671.27 1555.43C1674.92 1553.81 1677.15 1550.64 1680.43 1548.45" stroke="#776596" stroke-width="2" stroke-linecap="round" stroke-linejoin="round"/>
<path d="M1591.45 1418.48C1591.45 1412.76 1591.69 1405.67 1594.5 1400.6C1595.89 1398.11 1595.07 1394.52 1596.25 1391.92C1597.32 1389.57 1598.29 1386.19 1598.43 1383.59C1598.73 1378.18 1603.37 1373.34 1604.49 1368.32C1605.46 1363.95 1607.78 1356.45 1610.64 1353.06C1611.38 1352.17 1614.03 1347.81 1614.13 1346.95C1614.43 1344.37 1617.78 1342.68 1618.44 1340.36C1619.6 1336.3 1622.47 1331.63 1624.4 1327.76C1626.25 1324.08 1629.65 1320.75 1630.75 1316.91C1631.6 1313.95 1634.58 1308.9 1636.62 1306.63C1640.01 1302.87 1640.22 1297.38 1642.48 1293.3C1644.7 1289.31 1647.62 1283.46 1648.15 1278.91C1648.66 1274.55 1651.55 1269.93 1652.56 1265.39C1653.59 1260.78 1655.13 1255.35 1657.07 1251C1661.1 1241.92 1662.33 1231.97 1666.28 1223.08C1667.24 1220.92 1666.38 1217.38 1666.47 1215.04C1666.59 1211.88 1667.59 1208.4 1668.17 1205.25C1669 1200.67 1669.96 1196.32 1669.96 1191.68" stroke="#776596" stroke-width="2" stroke-linecap="round" stroke-linejoin="round"/>
<path d="M1838.31 1561.54C1842.47 1555.88 1846.53 1549.96 1851.2 1544.77C1852.12 1543.75 1853.56 1541.82 1854.21 1540.6C1855.24 1538.64 1857.17 1537.95 1858.18 1536.24C1861.42 1530.73 1871.46 1525.69 1871.46 1518.79" stroke="#776596" stroke-width="2" stroke-linecap="round" stroke-linejoin="round"/>
<path d="M1609.77 1235.3C1609.77 1223.13 1608.02 1211.99 1608.02 1199.73C1608.02 1187.36 1609.77 1175.37 1609.77 1163.09C1609.77 1147.38 1612.33 1133.6 1616.94 1118.6C1621 1105.42 1621.88 1091.4 1625.28 1077.8C1626.75 1071.91 1628.33 1064.52 1630.9 1059.09C1632.76 1055.17 1632.26 1050.8 1634 1046.88C1637 1040.14 1636.66 1032.11 1639.62 1025.07C1643.68 1015.44 1646.26 1005.68 1650.96 996.287C1653.78 990.653 1657.93 984.845 1660.17 979.034C1661.01 976.857 1663.31 968.207 1664.72 967.501" stroke="#776596" stroke-width="2" stroke-linecap="round" stroke-linejoin="round"/>
<path d="M1702.23 1305.08C1702.23 1293.56 1701.27 1281.77 1705.04 1270.87C1707.24 1264.53 1709.11 1258.17 1711.63 1251.87C1713.62 1246.9 1716.25 1239.76 1717.01 1234.42C1718.94 1220.97 1727.09 1207.49 1732.57 1195.17C1734.73 1190.32 1734.38 1184.11 1736.45 1179.47C1738.81 1174.16 1740.55 1166.51 1741.44 1160.72C1742.83 1151.7 1744.02 1143.65 1741.44 1134.59C1738.89 1125.68 1736.25 1115.2 1736.25 1105.52C1736.25 1098.44 1734.51 1091.35 1734.51 1084.19C1734.51 1077.43 1734.51 1070.66 1734.51 1063.89C1734.51 1058.86 1736 1053.04 1737.08 1048.19C1738.03 1043.88 1737.74 1039.54 1739.74 1035.54" stroke="#776596" stroke-width="2" stroke-linecap="round" stroke-linejoin="round"/>
<path d="M1069.82 872.995C1069.82 868.232 1073.58 866.311 1075.59 862.532C1077.6 858.73 1080 854.971 1083.12 851.85C1084.7 850.271 1086.2 848.649 1087.5 846.933C1089.1 844.824 1091.71 843.402 1093.14 841.169C1094.22 839.501 1095.96 838.246 1097.19 836.712C1098 835.705 1098.25 833.494 1099.47 832.886" stroke="#776596" stroke-width="2" stroke-linecap="round" stroke-linejoin="round"/>
<path d="M1073.31 884.33C1075.41 879.265 1079.8 875.202 1082.9 870.718C1085.14 867.481 1087.21 864.121 1089.25 860.788C1090.76 858.315 1092.8 856.185 1094.67 854.006C1096.21 852.207 1097.66 850.001 1099.3 848.363C1101.37 846.287 1103.44 842.451 1106.01 841.169" stroke="#776596" stroke-width="2" stroke-linecap="round" stroke-linejoin="round"/>
<path d="M1088.57 893.921C1092.59 888.266 1097.45 882.902 1101.11 877.015C1103.8 872.705 1106.94 869.145 1109.95 865.123C1112.83 861.286 1116.94 858.098 1119.09 853.812" stroke="#776596" stroke-width="2" stroke-linecap="round" stroke-linejoin="round"/>
<path d="M1104.26 909.18C1104.53 902.409 1111.62 897.649 1114.97 892.178C1117.28 888.399 1120.18 884.625 1122.82 881.036C1124.08 879.309 1124.49 877.021 1125.87 875.393C1126.91 874.163 1127.24 872.364 1128.24 871.251C1129.44 869.906 1130.97 867.98 1131.73 866.455" stroke="#776596" stroke-width="2" stroke-linecap="round" stroke-linejoin="round"/>
<path d="M1122.57 916.592C1122.67 911.47 1126.37 907.469 1128.68 903.077C1130.6 899.429 1133.09 895.786 1135.43 892.395C1139.61 886.367 1141.66 879.027 1145.68 872.995" stroke="#776596" stroke-width="2" stroke-linecap="round" stroke-linejoin="round"/>
<path d="M1136.96 924.875C1136.96 913.139 1145.93 905.413 1150.67 895.496C1152.1 892.502 1153.93 888.89 1155.95 886.292C1157.02 884.915 1157.4 881.877 1159.19 881.278" stroke="#776596" stroke-width="2" stroke-linecap="round" stroke-linejoin="round"/>
<path d="M1160.5 932.287C1163.59 923.37 1168.39 915.317 1170.87 906.129C1172.57 899.821 1175.02 893.533 1177.07 887.382" stroke="#776596" stroke-width="2" stroke-linecap="round" stroke-linejoin="round"/>
<path d="M1172.27 939.698C1172.27 934.438 1172.92 929.72 1174.04 924.657C1174.93 920.674 1177.94 917.042 1178.81 913.104C1179.39 910.512 1180.99 906.59 1182.3 904.288C1183.77 901.709 1183.64 898.665 1185.35 896.101" stroke="#776596" stroke-width="2" stroke-linecap="round" stroke-linejoin="round"/>
<path d="M1198 942.75C1198 938.66 1197.59 934.317 1198.43 930.301C1199.12 927.037 1199.96 923.813 1200.61 920.54C1201.61 915.534 1203.23 911.274 1203.23 906.129" stroke="#776596" stroke-width="2" stroke-linecap="round" stroke-linejoin="round"/>
<path d="M1218.05 943.186C1218.05 934.18 1217.59 924.967 1219.36 916.132C1220.48 910.529 1222.85 905.339 1222.85 899.589" stroke="#776596" stroke-width="2" stroke-linecap="round" stroke-linejoin="round"/>
<path d="M1240.72 945.366C1240.72 936.033 1240.72 926.7 1240.72 917.367C1240.72 909.785 1241.59 902.364 1241.59 894.793" stroke="#776596" stroke-width="2" stroke-linecap="round" stroke-linejoin="round"/>
<path d="M1271.24 938.39C1271.24 929.081 1271.74 919.608 1269.5 910.488C1268.74 907.436 1268.05 903.749 1266.23 901.115C1265.6 900.213 1264.7 898.475 1264.7 897.409" stroke="#776596" stroke-width="2" stroke-linecap="round" stroke-linejoin="round"/>
<path d="M1290.86 944.494C1290.86 933.049 1290.2 921.19 1287.27 910.052C1286.36 906.574 1285.29 903.102 1284.41 899.589C1283.89 897.484 1282.57 894.65 1282.57 892.614" stroke="#776596" stroke-width="2" stroke-linecap="round" stroke-linejoin="round"/>
<path d="M1317.89 926.183C1317.89 918.2 1313.65 910.272 1311.69 902.641C1310.18 896.785 1305.24 891.93 1305.24 885.638" stroke="#776596" stroke-width="2" stroke-linecap="round" stroke-linejoin="round"/>
<path d="M1338.81 920.952C1338.81 910.348 1332.74 901.692 1328.35 892.42C1326.76 889.066 1325.84 885.091 1324.52 881.617C1324 880.242 1322.33 876.743 1320.94 876.047" stroke="#776596" stroke-width="2" stroke-linecap="round" stroke-linejoin="round"/>
<path d="M1357.13 919.208C1355.29 914.662 1352.96 910.077 1350.05 906.129C1347.72 902.966 1345.42 899.488 1344.39 895.665C1343.48 892.327 1342.31 888.941 1340.99 885.735C1339.81 882.851 1338.93 879.4 1337.07 876.919" stroke="#776596" stroke-width="2" stroke-linecap="round" stroke-linejoin="round"/>
<path d="M1378.49 903.949C1377.51 898.321 1375.62 893.09 1372.72 888.157C1371.03 885.269 1369.19 881.978 1367.25 879.292C1365.76 877.23 1365.1 874.617 1363.66 872.462C1362.72 871.044 1361.39 868.175 1359.74 867.763" stroke="#776596" stroke-width="2" stroke-linecap="round" stroke-linejoin="round"/>
<path d="M1398.98 890.87C1396.8 887.018 1394.79 882.175 1391.78 878.905C1389.36 876.27 1387.24 873.091 1385.37 870.04C1383.45 866.917 1380.95 864.238 1379.8 860.788" stroke="#776596" stroke-width="2" stroke-linecap="round" stroke-linejoin="round"/>
<path d="M1416.42 876.919C1412.16 873.26 1409.17 868.581 1405.52 864.372C1403.6 862.166 1402.08 860.084 1400.38 857.736C1398.62 855.295 1397.13 850.692 1394.62 849.016" stroke="#776596" stroke-width="2" stroke-linecap="round" stroke-linejoin="round"/>
<path d="M1431.68 873.867C1427.94 871.923 1425.74 869.029 1423.3 865.68C1421.32 862.975 1418.9 860.522 1417.07 857.712C1416.05 856.148 1414.43 854.481 1413.8 852.746C1413.41 851.667 1412.08 851.233 1411.62 850.324" stroke="#776596" stroke-width="2" stroke-linecap="round" stroke-linejoin="round"/>
<path d="M1449.55 866.019C1444.93 862.042 1439.79 856.589 1436.5 851.439C1435.52 849.913 1434.24 845.656 1432.55 845.093" stroke="#776596" stroke-width="2" stroke-linecap="round" stroke-linejoin="round"/>
<path d="M1563.4 1699.27C1566.34 1701.49 1569.11 1704.01 1572.1 1705.91C1575.25 1707.91 1578.99 1712.69 1582.71 1713.52C1585.29 1714.09 1588.25 1716.09 1590.26 1717.9C1592.7 1720.09 1595.91 1720.94 1598.31 1723.07C1601.17 1725.61 1605.16 1727.35 1608.62 1728.89C1611.68 1730.25 1613.72 1732.34 1616.56 1733.91C1619.9 1735.77 1622.99 1739.47 1626.08 1741.88C1628.94 1744.1 1631.74 1748.04 1635.07 1749.52C1637.18 1750.45 1640.71 1753.8 1641.8 1755.86C1643.47 1759.01 1646.31 1761.12 1647.91 1764.33C1649.54 1767.58 1651.63 1770.52 1653.2 1773.85C1654.62 1776.85 1658.28 1779.9 1658.61 1783.37C1659.07 1788.16 1660.46 1793.55 1661.78 1798.18C1662.71 1801.42 1665.49 1804.94 1665.49 1808.23C1665.49 1812.48 1667 1818.73 1668.89 1822.51C1669.53 1823.78 1670.17 1826.36 1670.25 1827.8C1670.35 1829.83 1671.91 1831.46 1672.33 1833.35C1675.4 1847.15 1675.54 1861.29 1675.54 1875.67C1675.54 1881.7 1670.11 1887.36 1667.19 1892.33C1664.33 1897.19 1659.01 1900.79 1653.32 1900.79C1650.46 1900.79 1647.45 1901.25 1645.12 1899.44C1643.44 1898.14 1643.08 1895.63 1641.15 1894.56C1639.7 1893.75 1637.72 1892.18 1636.13 1891.83C1629.9 1890.44 1621.62 1890.86 1615.24 1891.77C1611.66 1892.28 1608.35 1894.97 1604.66 1894.97C1603.14 1894.97 1600.44 1895.55 1599.1 1896.3C1597.52 1897.18 1594.89 1896.67 1593.14 1897.21C1590.26 1898.09 1586.03 1898.52 1582.97 1898.68C1581.16 1898.77 1575.83 1898.68 1575.04 1900.26" stroke="#776596" stroke-width="2" stroke-linecap="round" stroke-linejoin="round"/>
<path d="M1602.01 1883.34C1612.17 1883.34 1622.03 1878.86 1630.84 1874.11C1633.07 1872.91 1636.13 1871.76 1638.51 1870.91C1640.43 1870.22 1642.35 1869.06 1644.33 1869.06" stroke="#776596" stroke-width="2" stroke-linecap="round" stroke-linejoin="round"/>
<path d="M1599.9 1866.41C1614.03 1866.41 1627.38 1865.39 1641.04 1861.65C1644.18 1860.79 1647.27 1859.99 1650.03 1858.18C1651.09 1857.49 1653.33 1856.35 1653.85 1855.3" stroke="#776596" stroke-width="2" stroke-linecap="round" stroke-linejoin="round"/>
<path d="M1595.67 1849.48C1604.96 1847.19 1613.49 1841.07 1622.05 1836.79C1627.36 1834.14 1632.52 1831 1637.95 1828.62C1640.9 1827.33 1643.6 1826.21 1646.86 1826.21C1648.67 1826.21 1650.66 1826.49 1652.26 1825.68" stroke="#776596" stroke-width="2" stroke-linecap="round" stroke-linejoin="round"/>
<path d="M1587.2 1834.15C1596.25 1832.25 1603.45 1827.35 1611.01 1822.24C1615.91 1818.94 1621.45 1816.49 1626.05 1812.72C1629.44 1809.95 1633.71 1803.47 1638.51 1803.47" stroke="#776596" stroke-width="2" stroke-linecap="round" stroke-linejoin="round"/>
<path d="M1578.74 1816.69C1585.21 1814.24 1591.95 1811.44 1597.78 1807.7C1601.36 1805.41 1604.47 1803.03 1607.83 1800.41C1611.89 1797.26 1617.71 1791.3 1623.17 1791.3" stroke="#776596" stroke-width="2" stroke-linecap="round" stroke-linejoin="round"/>
<path d="M1572.92 1793.42C1584.3 1789.7 1595.05 1785.04 1603.6 1776.49C1608.27 1771.82 1613.04 1766.47 1619.47 1764.33" stroke="#776596" stroke-width="2" stroke-linecap="round" stroke-linejoin="round"/>
<path d="M1570.81 1783.9C1573.24 1779.91 1577.3 1776.88 1580.62 1773.55C1583.67 1770.51 1586.78 1767.54 1589.85 1764.56C1593.67 1760.85 1598.88 1758.41 1603.28 1755.57C1605.94 1753.85 1608.23 1751.43 1611.01 1750.04" stroke="#776596" stroke-width="2" stroke-linecap="round" stroke-linejoin="round"/>
<path d="M1567.1 1773.32C1571.53 1766.16 1577.4 1761.43 1583.24 1755.6C1585.53 1753.31 1588.17 1751.37 1590.64 1749.28C1592.23 1747.94 1595.25 1747.18 1596.19 1745.28" stroke="#776596" stroke-width="2" stroke-linecap="round" stroke-linejoin="round"/>
<path d="M1563.93 1762.21C1567.09 1758.29 1570.02 1754.35 1573.39 1750.6C1575.74 1747.99 1578.3 1745.42 1580.44 1742.64C1582.25 1740.3 1584.78 1738.5 1586.73 1736.26C1588.14 1734.65 1589.68 1733.23 1591.43 1732.06" stroke="#776596" stroke-width="2" stroke-linecap="round" stroke-linejoin="round"/>
<path d="M1565.52 1739.47C1566.27 1735.5 1567.89 1732.33 1570.81 1729.42C1571.71 1728.51 1575.2 1725 1574.51 1724.66" stroke="#776596" stroke-width="2" stroke-linecap="round" stroke-linejoin="round"/>
<path d="M888.5 403C890.5 396 903.5 381.5 903.5 381.5C903.5 381.5 908.5 374 911.5 368C914.5 362 922.5 354 922.5 354C922.5 354 929.5 345.5 936 342C942.5 338.5 963.5 333 963.5 333C963.5 333 973.5 331 978 328C982.5 325 991.5 312.5 991.5 312.5C991.5 312.5 1001.5 303.5 1004 302.5C1006.5 301.5 1012 300 1015 300C1018 300 1018 304.5 1022 302.5C1026 300.5 1034 294.5 1038 293C1042 291.5 1057.5 290 1062.5 288C1067.5 286 1074.5 281.5 1074.5 281.5C1074.5 281.5 1089 274.5 1093 273C1097 271.5 1133 273 1140 274.5C1147 276 1153.5 282 1159 283.5C1164.5 285 1170.5 286 1170.5 286C1170.5 286 1180.5 289 1187 293C1193.5 297 1197 301 1203.5 306.5C1210 312 1218 323 1223 328.5C1228 334 1242.5 367 1246.5 374C1250.5 381 1261 400 1261 400C1261 400 1279.5 431.5 1283.5 436.5C1287.5 441.5 1298.5 457 1302.5 461C1306.5 465 1328 484 1332 487C1336 490 1352.5 499 1352.5 499C1352.5 499 1344.5 510 1342 512C1339.5 514 1334.5 515.5 1332 516.5C1329.5 517.5 1324 515.5 1323 517.5C1322 519.5 1324.5 536.5 1325 541C1325.5 545.5 1328 563.5 1329.5 570.5C1331 577.5 1333.5 587 1334.5 594C1335.5 601 1336.5 611.5 1336.5 611.5C1336.5 611.5 1338.5 629.5 1338.5 633.5C1338.5 637.5 1338.5 639.5 1336.5 645C1334.5 650.5 1337 661 1338.5 670.5C1340 680 1343 689 1346 695.5C1349 702 1359.5 719.5 1361.5 726C1363.5 732.5 1360.5 762 1361.5 771C1362.5 780 1364.5 787 1367 792.5C1369.5 798 1374 805.5 1378 809.5C1382 813.5 1394 824 1394 824C1394 824 1386 836 1380.5 840.5C1375 845 1367 849.5 1359.5 852.5C1352 855.5 1321 862 1312 863.5C1303 865 1286.5 872.5 1286.5 872.5L1265 878C1265 878 1238.5 884 1232.5 884.5C1226.5 885 1215.5 883.5 1208.5 882C1201.5 880.5 1178.5 867 1178.5 867L1143.5 844.5C1143.5 844.5 1113 822.5 1109.5 818.5C1106 814.5 1097.5 803 1093 797.5C1088.5 792 1081.5 786 1081.5 786C1081.5 786 1072 774.5 1070.5 771.5C1069 768.5 1071.5 756 1070.5 753C1069.5 750 1037 734.5 1031.5 730C1026 725.5 1006 707 1000 700C994 693 970.5 652 970.5 652L927.5 544C927.5 544 912.5 511 909.5 504.5C906.5 498 902 472.5 900 467.5C898 462.5 888.5 442 887.5 432C886.5 422 886.5 410 888.5 403Z" fill="#E9B4B4"/>
<path d="M983.5 673C983.5 673 974 657.5 970.5 651C967 644.5 925 537 921.5 530C918 523 912 511.5 909.5 504C907 496.5 907.5 495 906.5 491.5C905.5 488 902 472.5 900.5 467.5C899 462.5 892 450.5 888.5 433.5C885 416.5 886.5 406.5 888.5 402.5C890.5 398.5 901.5 382 904 380.5C906.5 379 912 369 912 369C912 369 919 356 922.5 353C926 350 939.5 339 945 338C950.5 337 970.5 331 973.5 330C976.5 329 982.5 324 984.5 322C986.5 320 995.5 309 997.5 306.5C999.5 304 1010 300.5 1012.5 300.5C1015 300.5 1019 304.5 1022 303.5C1025 302.5 1028.5 296 1032.5 295C1036.5 294 1046.5 291.5 1051.5 290.5C1056.5 289.5 1076 280.5 1076 280.5C1076 280.5 1086.5 274 1093.5 273.5C1100.5 273 1133.5 274 1138 274.5C1142.5 275 1152 281.5 1155 283C1158 284.5 1168 285 1173 286.5C1178 288 1183 291 1186.5 293C1190 295 1203.5 306 1207 310.5C1210.5 315 1216 320 1219.5 325C1223 330 1228.5 338 1231.5 344.5C1234.5 351 1242 364.5 1245 371.5C1248 378.5 1254 389.5 1258.5 396C1263 402.5 1274.5 422.5 1274.5 422.5C1274.5 422.5 1280 433 1283 436.5C1286 440 1288.5 442.5 1290.5 444.5C1292.5 446.5 1295.5 451 1297 454.5C1298.5 458 1309 467 1309 467C1309 467 1316.5 475 1322.5 479.5C1328.5 484 1341.5 492.5 1341.5 492.5L1353 499C1353 499 1349 505 1345.5 509C1342 513 1338.5 514.5 1338.5 514.5L1333 516.5C1333 516.5 1328 517.5 1326.5 517.5C1325 517.5 1322.5 516.5 1322.5 516.5C1322.5 516.5 1326 549 1326.5 553C1327 557 1331 579.5 1332 584C1333 588.5 1335.5 605.5 1335.5 605.5C1335.5 605.5 1337.5 618.5 1338 623.5C1338.5 628.5 1339 637.5 1338.5 639.5C1338 641.5 1336.5 643.5 1336 646C1335.5 648.5 1336 662 1337 669C1338 676 1348.5 701 1348.5 701C1348.5 701 1360 723 1361 726.5C1362 730 1361 741 1361 746C1361 751 1361 764.5 1362 771C1363 777.5 1364 785.5 1366.5 790.5C1369 795.5 1373 803 1376 807C1379 811 1386 817 1386 817L1394.5 823.5C1394.5 823.5 1407 832 1409.5 833.5C1412 835 1414 836 1417 836.5C1420 837 1425.5 836.5 1425.5 836.5C1425.5 836.5 1432 835 1434.5 834.5C1437 834 1441.5 833.5 1444.5 833.5C1447.5 833.5 1458.5 834.5 1460.5 834.5C1462.5 834.5 1468 836 1470 836.5C1472 837 1479.5 842 1482.5 842C1485.5 842 1490.5 842.5 1494.5 842C1498.5 841.5 1502.5 841.5 1506.5 839.5C1510.5 837.5 1521.5 829 1521.5 829C1521.5 829 1532 819.5 1533 818C1534 816.5 1534.5 816 1535 813.5C1535.5 811 1534.5 805.5 1534.5 801.5C1534.5 797.5 1536.5 795 1536.5 795C1536.5 795 1539.5 791.5 1541.5 790C1543.5 788.5 1546.5 787 1549 786.5C1551.5 786 1553.5 786 1557 786C1560.5 786 1564.5 788 1567 789.5C1569.5 791 1575.5 795 1578.5 797.5C1581.5 800 1587.5 805.5 1587.5 805.5C1587.5 805.5 1592.5 793.5 1594 789C1595.5 784.5 1597.5 781 1598.5 773C1599.5 765 1598 752.5 1596 744.5C1594 736.5 1585 717 1582.5 710.5C1580 704 1580 701.5 1581 694.5C1582 687.5 1587.5 668 1589 660.5C1590.5 653 1592 642 1591 633.5C1590 625 1583 613 1583 613C1583 613 1576 600.5 1572.5 596C1569 591.5 1563.5 586 1559 582C1554.5 578 1546 572 1546 572C1546 572 1541 569 1536.5 566C1532 563 1518 548 1515 545C1512 542 1510 538 1508 534.5C1506 531 1505 528.5 1503.5 523C1502 517.5 1499.5 502 1498 495C1496.5 488 1495 479 1492.5 471C1490 463 1486.5 453 1483 445.5C1479.5 438 1477 430.5 1471.5 424.5C1466 418.5 1458 409.5 1458 409.5C1458 409.5 1440.5 391 1434.5 386.5C1428.5 382 1414 364 1414 364L1404.5 348.5C1404.5 348.5 1400 341 1398 335.5C1396 330 1386 297.5 1383.5 291C1381 284.5 1377 274.5 1373.5 270.5C1370 266.5 1367.5 262.5 1363.5 259C1359.5 255.5 1349.5 246.5 1343.5 243C1337.5 239.5 1317 230.5 1312 227C1307 223.5 1301.5 219 1297.5 215C1293.5 211 1289 191.5 1287 187.5C1285 183.5 1282.5 182 1279.5 180C1276.5 178 1249 170 1244.5 166C1240 162 1221 140.5 1216.5 139.5C1212 138.5 1207.5 139 1205 138.5C1202.5 138 1194 137.5 1189.5 135.5C1185 133.5 1173 122.5 1168 120C1163 117.5 1162.5 116.5 1158 115C1153.5 113.5 1111 117 1106.5 115C1102 113 1097.5 106 1095 104.5C1092.5 103 1089 101.5 1087 101.5C1085 101.5 1068 101.5 1060.5 102.5C1053 103.5 1045.5 108 1043.5 109.5C1041.5 111 1020 129 1011.5 132.5C1003 136 996.5 132 988.5 136.5C980.5 141 970 149.5 965.5 155.5C961 161.5 954.5 175 950.5 180C946.5 185 946 185.5 939.5 189C933 192.5 930 191.5 922.5 196.5C915 201.5 908 212 908 212C908 212 900 219 897.5 225.5C895 232 896 234 894.5 238C893 242 890.5 239.5 885.5 245C880.5 250.5 876.5 259 876.5 259C876.5 259 864.5 289 863.5 296C862.5 303 860.5 315.5 859.5 325.5C858.5 335.5 860 353 859.5 361C859 369 852.5 379 853.5 392C854.5 405 857 430.5 857 430.5C857 430.5 858.5 470.5 857 477C855.5 483.5 853 485.5 851 491.5C849 497.5 847 507 846.5 515C846 523 846.5 551 846.5 551C846.5 551 848.5 576 846.5 583.5C844.5 591 835.5 610.5 833.5 625C831.5 639.5 833.5 654.5 833.5 654.5C833.5 654.5 840 687.5 841 696C842 704.5 842.5 717.5 841 723.5C839.5 729.5 830.5 737 829 748C827.5 759 828.5 759 829 761.5C829.5 764 839.5 786.5 839.5 786.5C839.5 786.5 845 804.5 846 805.5C847 806.5 849.5 806.5 850.5 807C851.5 807.5 853 809.5 853 809.5C853 809.5 857 822 859.5 825C862 828 863 829.5 867 831.5C871 833.5 885 838 886.5 839.5C888 841 889 842.5 889 842.5L900.5 855.5C900.5 855.5 911.5 869.5 914 872.5C916.5 875.5 920.5 878.5 924.5 879C928.5 879.5 932.5 879 938.5 879C944.5 879 954 886 954 886C954 886 972 896 976 897C980 898 991 888.5 995.5 887C1000 885.5 1008.5 885.5 1013 884.5C1017.5 883.5 1037 876 1037 876C1037 876 1059.5 866 1064 863.5C1068.5 861 1079.5 856 1082 850C1084.5 844 1083.5 834 1083.5 834C1083.5 834 1083.5 824.5 1082 819C1080.5 813.5 1071.5 783 1071 777C1070.5 771 1070.5 754.5 1070 752.5C1069.5 750.5 1038 735 1030 728.5C1022 722 1004 705.5 999 699C994 692.5 983.5 673 983.5 673Z" fill="#773628"/>
<path d="M1035 528.5C1035 528.5 1042 532 1044.5 534.5C1047 537 1052 544.5 1053.5 548C1055 551.5 1057.5 558 1057.5 564C1057.5 570 1057.5 585 1057.5 585C1057.5 585 1057.5 644.5 1059 647C1060.5 649.5 1066.5 654 1070 656C1073.5 658 1081 661.5 1085.5 663C1090 664.5 1094.5 665 1098.5 664C1102.5 663 1106 662 1109 660.5C1112 659 1118 654.5 1118 654.5" stroke="#B75252" stroke-width="2"/>
<path d="M1135 643C1135 643 1140.5 637.5 1141.5 635.5C1142.5 633.5 1143 629.5 1143 626C1143 622.5 1143 621 1141.5 618C1140 615 1131.5 608.5 1131.5 608.5" stroke="#B75252" stroke-width="2"/>
<path d="M1125.5 639C1124.5 640.5 1120.5 648 1120.5 648C1120.5 648 1125.5 642.5 1126.5 642C1127.5 641.5 1129 641.5 1130 641.5C1131 641.5 1133.5 640.5 1134.5 639C1135.5 637.5 1135.5 635.5 1134.5 634.5C1133.5 633.5 1132 633 1130.5 634.5C1129 636 1126.5 637.5 1125.5 639Z" fill="#B75252" stroke="#B75252" stroke-width="2"/>
<path d="M892.5 564.5C894.5 561 918.5 524 918.5 524L921.5 533L910.5 554C910.5 554 927 545.5 931 543C935 540.5 947 535.5 947 535.5C947 535.5 959 531.5 964 530C969 528.5 974.5 528.5 977.5 528.5H992.5C998 528.5 1004.5 530 1008.5 531.5C1012.5 533 1017.5 535.5 1020.5 538C1023.5 540.5 1027.5 545 1027.5 545L1034.5 551.5C1034.5 551.5 1034.5 547 1037 545C1039.5 543 1044 540.5 1044 540.5C1044 540.5 1048.5 538 1055 535.5C1061.5 533 1063.5 531.5 1067.5 531.5H1078.5H1088.5C1088.5 531.5 1091 521 1093 517.5C1095 514 1097 509 1101 504C1105 499 1112 495.5 1116.5 493.5C1121 491.5 1127 489 1132.5 486.5C1138 484 1144 483 1154.5 480.5C1165 478 1177.5 478 1177.5 478H1198C1204.5 478 1209 479 1214.5 480.5C1220 482 1224 483.5 1226.5 485C1229 486.5 1236 493.5 1236 493.5C1236 493.5 1245 489.5 1248 486.5C1251 483.5 1280 431 1280 431L1283 436.5C1283 436.5 1253.5 491 1251 493.5C1248.5 496 1241 499 1241 499C1241 499 1242.5 502.5 1244.5 507.5C1246.5 512.5 1248 516.5 1248 520.5V538L1244.5 554C1244.5 554 1241 562.5 1238.5 567.5C1236 572.5 1231.5 577.5 1229 580.5C1226.5 583.5 1212 591 1212 591C1212 591 1198 597 1190.5 598.5C1183 600 1171.5 601 1171.5 601C1171.5 601 1157.5 601 1149 598.5C1140.5 596 1127 591 1127 591C1127 591 1116.5 585.5 1111 580.5C1105.5 575.5 1101 567.5 1101 567.5C1101 567.5 1096 560 1093 554C1090 548 1088.5 538 1088.5 538H1080H1067.5C1064.5 538 1055 543 1055 543C1055 543 1047 547 1044 549C1041 551 1039.5 558 1039.5 558C1039.5 558 1046.5 571.5 1048.5 577C1050.5 582.5 1051 591 1051 594.5C1051 598 1048.5 607.5 1047 611C1045.5 614.5 1039.5 620.5 1037 623.5C1034.5 626.5 1024.5 634.5 1019 638.5C1013.5 642.5 1001.5 645 994.5 647.5C987.5 650 974.5 651 969 650.5C963.5 650 960.5 649 954 647.5C947.5 646 929.5 633 925 629C920.5 625 914 617 910.5 611C907 605 899.5 589.5 899.5 589.5L894 591C894 591 888 583 887.5 580.5C887 578 890.5 568 892.5 564.5Z" fill="#FEB63A"/>
<path d="M915 560C911 564 910.5 563.5 908 569C905.5 574.5 906.5 587.5 908 591.5C909.5 595.5 912 599.5 915 604.5C918 609.5 926 622.5 930 626.5C934 630.5 946.5 638 950.5 640C954.5 642 966 645.5 970.5 645.5C975 645.5 997 641.5 1001 640C1005 638.5 1026.5 626.5 1030.5 623.5C1034.5 620.5 1043 613.5 1044.5 600C1046 586.5 1042.5 576.5 1039 569C1035.5 561.5 1029 554 1022 547.5C1015 541 1004 538 994 536.5C984 535 976 534 966 536.5C956 539 954.5 539.5 946 543C937.5 546.5 919 556 915 560Z" fill="#CCDDEB"/>
<path d="M1117.5 499.5C1117.5 499.5 1104 509 1101 514C1098 519 1095 525 1094.5 529.5C1094 534 1095.5 539.5 1096.5 543C1097.5 546.5 1100 555.5 1103.5 560C1107 564.5 1108.5 569 1117.5 576.5C1126.5 584 1127 584.5 1134.5 588C1142 591.5 1147.5 594.5 1164 594.5C1180.5 594.5 1190 592 1194.5 591.5C1199 591 1207.5 587 1209.5 586C1211.5 585 1222.5 580 1226 574.5C1229.5 569 1234 563 1236 557.5C1238 552 1239 547 1240.5 540C1242 533 1241 529.5 1240.5 520.5C1240 511.5 1237.5 505 1234 500.5C1230.5 496 1224.5 492.5 1219 489.5C1213.5 486.5 1205 486 1197 484.5C1189 483 1178.5 483 1168 484.5C1157.5 486 1149.5 486 1139.5 489.5C1129.5 493 1117.5 499.5 1117.5 499.5Z" fill="#CCDDEB"/>
<path d="M937 513C934 514.5 921.5 528.5 921.5 531C921.5 533.5 923.5 540 925.5 539.5C927.5 539 933 536 933 536L942 532C942 532 946.5 531 949.5 531C952.5 531 957.5 532 957.5 532C957.5 532 960 531 963.5 529.5C967 528 968.5 528 973 528H985.5H995.5C998.5 528 999.5 528 1004.5 529.5C1009.5 531 1013.5 533.5 1013.5 533.5C1013.5 533.5 1016 533.5 1018 532C1020 530.5 1020.5 528 1020 525.5C1019.5 523 1008.5 521 1002.5 519C996.5 517 983 514.5 983 514.5C983 514.5 967.5 511.5 959.5 511.5H959.5C951.5 511.5 940 511.5 937 513Z" fill="#773628"/>
<path d="M1100.5 480.5C1098 484 1094 489.5 1092.5 493C1091 496.5 1092.5 499.5 1094.5 500.5C1096.5 501.5 1104 501 1104 501L1113 495C1116 493 1118 492.5 1121.5 491C1125 489.5 1128.5 488.5 1128.5 488.5C1128.5 488.5 1134.5 480 1138 478C1141.5 476 1147 471.5 1150 470C1153 468.5 1161.5 463 1163.5 462C1165.5 461 1174 458 1177.5 457C1181 456 1196.5 454 1200 453.5C1203.5 453 1216.5 453 1220 452C1223.5 451 1232 449 1232 447C1232 445 1213.5 439.5 1209 439C1204.5 438.5 1163.5 439.75 1160.5 440.5C1157.5 441.25 1148 444.5 1143.5 447C1139 449.5 1128.5 457 1128.5 457C1128.5 457 1115.5 465.5 1112 468.5C1108.5 471.5 1103 477 1100.5 480.5Z" fill="#773628"/>
<path d="M1090 713C1087.5 713 1080.5 712.5 1081 714C1081.5 715.5 1093.5 726.5 1096 728.5C1098.5 730.5 1104.5 733 1104.5 733C1104.5 733 1112 736 1115.5 736.5C1119 737 1125 736.5 1128 736.5C1131 736.5 1141.5 734 1141.5 734C1141.5 734 1152.5 730.5 1155 729.5C1157.5 728.5 1164.5 724.5 1166.5 723C1168.5 721.5 1175 717 1176.5 715.5C1178 714 1181.5 708.5 1182.5 706C1183.5 703.5 1190.5 690.5 1190.5 690.5C1190.5 690.5 1196.5 676.5 1197 675C1197.5 673.5 1197 672 1195.5 671.5C1194 671 1185 677.5 1185 677.5C1185 677.5 1177.5 681.5 1175 682.5C1172.5 683.5 1162.5 687 1162.5 687C1162.5 687 1153 690 1150 690.5C1147 691 1137.5 690.5 1137.5 690.5C1135.5 690.5 1128 701 1126.5 702C1125 703 1117.5 701 1115.5 702C1113.5 703 1108.5 707.5 1106.5 708.5C1104.5 709.5 1098.5 711.5 1098.5 711.5C1098.5 711.5 1092.5 713 1090 713Z" fill="#924949"/>
<path d="M1090 718C1090 718 1098.5 717.5 1101 717C1103.5 716.5 1109.5 714 1112 713C1114.5 712 1125.5 713 1128 713C1130.5 713 1143 703 1145.5 702C1148 701 1158.5 698 1160.5 697C1162.5 696 1178.5 687 1178.5 687M1081 714C1080.5 712.5 1087.5 713 1090 713C1092.5 713 1098.5 711.5 1098.5 711.5C1098.5 711.5 1104.5 709.5 1106.5 708.5C1108.5 707.5 1113.5 703 1115.5 702C1117.5 701 1125 703 1126.5 702C1128 701 1135.5 690.5 1137.5 690.5C1137.5 690.5 1147 691 1150 690.5C1153 690 1162.5 687 1162.5 687C1162.5 687 1172.5 683.5 1175 682.5C1177.5 681.5 1185 677.5 1185 677.5C1185 677.5 1194 671 1195.5 671.5C1197 672 1197.5 673.5 1197 675C1196.5 676.5 1190.5 690.5 1190.5 690.5C1190.5 690.5 1183.5 703.5 1182.5 706C1181.5 708.5 1178 714 1176.5 715.5C1175 717 1168.5 721.5 1166.5 723C1164.5 724.5 1157.5 728.5 1155 729.5C1152.5 730.5 1141.5 734 1141.5 734C1141.5 734 1131 736.5 1128 736.5C1125 736.5 1119 737 1115.5 736.5C1112 736 1104.5 733 1104.5 733C1104.5 733 1098.5 730.5 1096 728.5C1093.5 726.5 1081.5 715.5 1081 714Z" stroke="#B55252" stroke-width="2"/>
<path d="M1070.5 752.5L1085.5 762C1085.5 762 1097 767.5 1100 769.5C1103 771.5 1106.5 776.5 1110.5 779.5C1114.5 782.5 1134.5 793 1143.5 794.5C1152.5 796 1167.5 795.5 1173 794.5C1178.5 793.5 1190 791 1195 789C1200 787 1210.5 783 1216.5 779C1222.5 775 1231.5 768 1234.5 764.5C1237.5 761 1240.5 756 1244 752.5C1247.5 749 1260 738 1264.5 733C1269 728 1278 715 1278 715L1289 697C1289 697 1304.5 673.5 1307 668C1309.5 662.5 1314.5 650.5 1316.5 645C1318.5 639.5 1324 624 1325 619.5C1326 615 1328 610.5 1329 602.5C1330 594.5 1330 577 1330 577" stroke="#B85454" stroke-width="2"/>
<path d="M901.821 642.665C903.653 652.058 905.968 659.018 905.968 668.792C905.968 673.092 906.797 677.207 906.797 681.648C906.797 683.722 906.797 685.796 906.797 687.869C906.797 690.247 905.138 692.211 905.138 694.505C905.138 698.712 902.072 702.263 901.821 706.531C901.614 710.046 899.37 714.036 898.549 717.729C897.585 722.065 896.278 726.101 896.014 730.585C895.883 732.813 894.177 740.681 892.282 742.197C890.511 743.614 889.971 752.598 889.425 755.054C888.555 758.971 888.55 762.879 888.55 767.08C888.55 774.706 886.724 785.731 890.024 792.332C893.625 799.533 899.698 805.505 903.295 812.699C907.402 820.914 913.131 825.405 920.898 829.288" stroke="#B05845" stroke-linecap="round" stroke-linejoin="round"/>
<path d="M953.246 693.26C953.355 698.741 954.904 703.398 954.904 708.605C954.904 712.338 954.904 716.07 954.904 719.802C954.904 723.535 954.904 727.267 954.904 731C954.904 734.894 953.371 738.235 952.37 741.737C948.855 754.038 942.269 768.422 930.021 774.545" stroke="#B05845" stroke-linecap="round" stroke-linejoin="round"/>
<path d="M1014.62 767.08C1016.6 772.132 1017.94 777.401 1017.94 782.84C1017.94 785.052 1017.94 787.263 1017.94 789.475C1017.94 791.644 1016.51 792.607 1016.28 794.452C1015.84 798.002 1011.5 801.558 1010.29 805.05C1008.96 808.903 1005.18 812.56 1004.67 816.847C1004.21 820.748 1002.18 824.235 1002.18 828.459C1002.18 833.001 1000.7 837.201 1002 842.098C1003.51 847.81 1004.99 851.191 1009 855.646C1011 857.868 1013.69 861.998 1016.28 863.295" stroke="#B05845" stroke-linecap="round" stroke-linejoin="round"/>
<path d="M1372.11 523.226C1372.11 529.603 1368.79 535.097 1368.79 541.059C1368.79 546.845 1366.31 552.532 1366.31 558.062C1366.31 569.273 1363.79 581.376 1366.26 592.484C1366.79 594.878 1366.31 597.908 1366.31 600.364C1366.31 603.946 1367.13 607.487 1367.13 611.146C1367.13 617.268 1367.96 622.893 1367.96 628.979C1367.96 632.43 1368.46 637.058 1369.44 640.361C1370.39 643.575 1369.32 648.007 1370.64 650.959C1373.48 657.357 1371.49 666.295 1374.6 672.525" stroke="#B05845" stroke-linecap="round" stroke-linejoin="round"/>
<path d="M1528.88 709.02C1535.3 713.885 1539.27 719.925 1544.63 725.609C1546.79 727.892 1549.7 731.127 1551.09 733.903C1552.12 735.969 1555.15 739.96 1555.42 742.197C1555.77 745.201 1558.37 747.412 1558.73 750.492C1559.01 752.794 1560.03 756.506 1561.04 758.786C1563.32 763.912 1560.59 771.352 1557.91 775.375" stroke="#B05845" stroke-linecap="round" stroke-linejoin="round"/>
<path d="M1492.38 577.969C1492.54 584.424 1497.9 589.549 1500.49 595.387C1502.52 599.949 1505.65 607.782 1505.65 612.805C1505.65 618.253 1507.31 623.591 1507.31 629.394C1507.31 632.297 1507.31 635.2 1507.31 638.103C1507.31 641.143 1505.38 643.666 1504.78 646.397C1503.61 651.645 1500.75 656.767 1498.55 661.788C1495.38 669.052 1494.39 677.35 1491.14 684.505C1488.21 690.941 1486.57 700.802 1486.57 707.776C1486.57 713.484 1484.09 719.075 1484.09 724.779" stroke="#B05845" stroke-linecap="round" stroke-linejoin="round"/>
<path d="M1484.09 724.779C1484.09 734.673 1484.02 747.86 1490.26 755.883C1493.4 759.925 1494.56 760.77 1499.38 762.15C1503.19 763.238 1508.69 764.328 1510.63 760.445" stroke="#B05845" stroke-linecap="round" stroke-linejoin="round"/>
<path d="M1305.76 436.964C1307.72 439.477 1310.1 441.542 1312.02 444.015C1313.44 445.84 1315.18 448.335 1316.72 450.051C1320.15 453.857 1321.57 459.486 1325.02 463.322C1328.89 467.622 1330.73 473.415 1333.96 478.252C1335.53 480.614 1337.06 483.662 1339.35 485.44C1341.45 487.074 1343.94 487.584 1345.98 489.219C1349.91 492.362 1353.32 495.55 1357.6 497.928C1361.99 500.372 1366.67 503.478 1370.91 506.176C1375.73 509.241 1381.7 509.293 1386.63 512.028C1388.44 513.037 1391.77 514.707 1393.68 514.931C1396.85 515.305 1398.5 518.249 1401.97 518.249" stroke="#B05845" stroke-linecap="round" stroke-linejoin="round"/>
<path d="M1460.86 814.358C1454.69 814.208 1449.51 809.738 1443.44 809.382C1438.65 809.1 1434.13 806.596 1429.34 806.064C1425.46 805.632 1419.67 802.337 1416.07 800.442C1411.84 798.212 1407.31 796.314 1403.22 794.037C1399.63 792.045 1395.88 787.384 1393.31 784.084C1391.28 781.475 1388.34 778.047 1386.63 774.96C1384.73 771.554 1382.15 768.092 1381.28 764.177C1380.89 762.404 1379.15 755.255 1377.92 754.639" stroke="#B05845" stroke-linecap="round" stroke-linejoin="round"/>
<path d="M1377.92 754.639C1377.92 741.303 1375.42 728.33 1381.05 715.655C1382.03 713.46 1382.77 710.582 1382.89 708.19C1383.24 701.678 1386.92 695.222 1387.87 688.791C1388.96 681.463 1392.36 674.657 1395.34 667.963C1397.66 662.726 1399.7 657.104 1401.33 651.604C1402.68 647.024 1404.29 640.486 1406.53 636.444C1408.84 632.286 1408.31 626.178 1409.62 621.745C1411.14 616.616 1410.27 611.146 1411.92 606.17" stroke="#B05845" stroke-linecap="round" stroke-linejoin="round"/>
<path d="M1410.27 607.828C1410.96 604.257 1411.38 599.853 1413.17 596.631C1414.69 593.886 1413.73 590.358 1414.83 587.507C1415.94 584.614 1416.07 578.595 1416.07 575.527C1416.07 572.66 1415.93 566.775 1417.32 564.283C1418.58 562.006 1417.73 557.718 1417.73 555.159C1417.73 550.451 1417.51 546.091 1416.86 541.473C1415.77 533.876 1413.58 526.491 1413.58 518.664C1413.58 513.414 1410.53 505.496 1407.78 501.015C1404.11 495.06 1402.45 488.656 1400.13 481.938C1398.89 478.348 1398.03 474.33 1396.35 470.971C1394.8 467.878 1392.9 467.101 1390.54 464.981C1388.92 463.521 1387.65 461.834 1386.03 460.373C1384.5 458.997 1381.38 458.602 1379.58 457.7" stroke="#B05845" stroke-linecap="round" stroke-linejoin="round"/>
<path d="M1379.58 457.7C1375.07 451.929 1369.74 445.046 1363.4 441.526C1359.78 439.512 1357.37 435.685 1353.86 433.831C1352.38 433.043 1349.58 429.822 1348.89 428.255C1347.9 426.024 1345.35 424.998 1344.1 422.864C1342.69 420.483 1337.81 416.914 1335.25 416.182C1334.07 415.846 1331.55 412.989 1330.64 412.081C1329.05 410.493 1327.65 409.003 1326.12 407.473C1323.04 404.394 1321.85 399.018 1318.84 395.677C1316.51 393.08 1313.98 390.591 1311.56 388.028C1308.09 384.356 1307.86 378.516 1304.51 375.171C1301.73 372.385 1299.12 368.114 1297.46 364.389C1295.55 360.077 1293.07 355.641 1291.01 351.532C1289.25 348.016 1286.65 342.844 1284.19 339.92C1281.08 336.221 1278.71 330.546 1276.31 326.234C1275.38 324.55 1275.24 321.687 1274.05 320.198C1273.07 318.962 1271.32 317.059 1270.97 315.452C1270.32 312.555 1266.94 309.54 1266.77 306.743C1266.62 304.175 1264.26 298.023 1261.8 296.789" stroke="#B05845" stroke-linecap="round" stroke-linejoin="round"/>
<path d="M1261.8 296.789C1259.37 291.086 1253.26 287.611 1251.89 281.445C1250.89 276.93 1246.85 272.71 1244.56 268.589C1241.85 263.703 1237.81 259.589 1234.79 254.857C1231.89 250.301 1228.43 246.469 1224.66 242.692C1221.03 239.065 1217.29 235.712 1214.15 231.679C1210.64 227.164 1205.4 225.003 1201.25 221.311C1197.93 218.358 1194.18 216.783 1190.88 214.214C1187.57 211.639 1182.25 207.53 1178.39 206.427C1174.07 205.192 1169.75 201.185 1165.58 199.1C1161.05 196.837 1156.3 195.141 1151.9 192.695C1143.31 187.926 1133.35 182.861 1123.69 180.714C1114.12 178.586 1104.76 175.692 1094.66 175.692C1090.51 175.692 1084.37 173.171 1080.15 175.046C1076.36 176.731 1070.2 178.18 1066.05 178.18" stroke="#B05845" stroke-linecap="round" stroke-linejoin="round"/>
<path d="M1066.05 178.18C1061.04 179.158 1055.52 178.153 1051.12 180.484C1047.28 182.515 1042.2 182.215 1038.26 184.401C1036.65 185.296 1034.89 184.919 1033.52 186.29C1032.36 187.443 1031.26 188.199 1029.92 188.963C1027.38 190.414 1019.6 193.366 1019.6 196.428" stroke="#B05845" stroke-linecap="round" stroke-linejoin="round"/>
<path d="M1019.6 195.598C1013.81 199.131 1012.64 203.47 1009.46 208.869C1007.15 212.805 1001.94 216.324 1001.35 221.311C1001.14 223.16 999.593 227.042 998.68 228.776C997.538 230.946 997.504 232.827 996.561 234.95C995.012 238.435 996.376 245.632 996.376 249.511C996.376 258.78 997.499 266.606 1002.37 274.395C1004.46 277.746 1007.42 280.875 1009.46 284.348C1011.12 287.159 1013.82 290.714 1017.11 291.813" stroke="#B05845" stroke-linecap="round" stroke-linejoin="round"/>
<path d="M875.279 387.198C875.279 381.092 876.979 376.59 877.721 370.655C878.246 366.454 878.352 361.205 880.071 357.338C881.757 353.544 881.062 348.524 881.96 344.482C882.836 340.539 885.152 336.753 886.015 332.87C886.629 330.107 887.668 326.749 888.734 323.977C890.154 320.285 894.31 316.695 895.139 312.963C896.43 307.155 901.402 300.5 905.323 296.144C909.754 291.22 917.544 285.966 923.386 282.873C926.248 281.358 928.228 279.062 931.266 277.712C933.605 276.673 938.381 275.972 939.975 273.98C941.07 272.611 947.325 271.077 949.098 271.077C952.505 271.077 955.841 270.247 959.42 270.247C963.168 270.247 966.916 270.247 970.664 270.247C974.274 270.247 975.253 271.298 978.129 272.736" stroke="#B05845" stroke-linecap="round" stroke-linejoin="round"/>
<path d="M937.486 218.822C941.133 216.141 944.408 214.762 948.269 212.832C949.851 212.041 953.298 209.793 954.905 209.699C956.737 209.591 962.227 208.787 962.369 211.357C962.524 214.135 965.682 214.659 966.517 217.163" stroke="#B05845" stroke-linecap="round" stroke-linejoin="round"/>
<path d="M978.958 213.016C978.958 202.052 978.129 190.965 978.129 179.839C978.129 177.751 977.597 174.857 978.175 172.835C978.788 170.687 981.845 169.334 982.921 167.397C984.875 163.88 989.706 158.02 993.059 155.785" stroke="#B05845" stroke-linecap="round" stroke-linejoin="round"/>
<path d="M1015.45 144.173C1022.03 141.445 1029.28 135.049 1036.65 135.049C1041.35 135.049 1045.89 131.731 1050.75 131.731C1055.56 131.731 1060.37 131.731 1065.17 131.731C1085.11 131.731 1103.86 138.151 1121.62 147.03C1131.26 151.851 1142.44 153.762 1152.31 158.273C1160.86 162.183 1169.94 162.869 1178.67 165.554C1181.43 166.404 1185.07 166.568 1187.98 166.568C1191.26 166.568 1197.47 167.102 1200.42 168.411C1203.32 169.7 1207.91 169.355 1210.37 171.544C1212.55 173.477 1216.14 176.087 1218.67 177.351" stroke="#B05845" stroke-linecap="round" stroke-linejoin="round"/>
<path d="M1060.24 272.736C1066.38 271.388 1069.49 266.598 1074.71 263.612C1078.54 261.423 1082.13 256.622 1084.76 253.244C1087.93 249.164 1090.73 244.859 1093.88 240.802C1097.03 236.756 1099.04 232.397 1102.18 228.361C1118.13 207.85 1154.11 216.937 1170.1 232.923C1174.34 237.165 1180.64 239.684 1184.24 244.489C1187.31 248.571 1190.59 252.955 1194.2 256.562C1198.46 260.828 1202.7 265.062 1207.1 269.464C1212.46 274.822 1214.76 282.097 1219.91 287.251C1222.83 290.175 1225.5 293.212 1228.43 296.144C1230.22 297.935 1231.69 301.565 1234.01 302.595C1236.14 303.541 1240.2 306.802 1241.89 308.402C1246.11 312.398 1251.64 314.791 1255.81 318.539C1259.14 321.54 1263.35 322.707 1266.77 324.99" stroke="#B05845" stroke-linecap="round" stroke-linejoin="round"/>
<path d="M1252.67 205.551C1262.1 207.621 1269.18 214.819 1277.56 219.007C1285.1 222.778 1292.31 227.077 1299.95 230.895C1304.32 233.078 1309.88 237.804 1312.85 241.632C1313.91 242.994 1317.05 245.499 1318.61 246.194C1320.96 247.239 1322.07 250.125 1324.42 251.17C1327.87 252.706 1329.22 258.021 1331.93 260.34C1334.22 262.303 1334.79 265.278 1336.86 267.344C1338.81 269.298 1341.21 270.861 1343.08 272.736C1346.02 275.675 1350.54 279.824 1352.39 283.518C1354.36 287.456 1357.03 291.947 1360.04 295.131C1368.19 303.76 1373.5 317.521 1378.33 328.262C1381.4 335.074 1385.27 342.266 1389.11 348.675C1392.69 354.63 1392.88 362.996 1395.75 369.319C1398.1 374.496 1399.47 381.645 1400.27 387.198C1401.29 394.331 1406.95 400.685 1406.95 407.934" stroke="#B05845" stroke-linecap="round" stroke-linejoin="round"/>
<path d="M1406.95 407.934C1410.63 417.381 1414.97 425.354 1419.8 434.061C1424.75 442.966 1432.43 451.635 1435.98 461.387C1437.54 465.679 1442.28 469.33 1444.46 473.46C1448.12 480.412 1452.37 487.16 1455.7 494.196C1458.26 499.61 1461.34 504.65 1463.99 509.955C1464.49 510.943 1466.28 514.448 1467.13 514.931C1468.89 515.941 1470.73 516.422 1471.64 518.249" stroke="#B05845" stroke-linecap="round" stroke-linejoin="round"/>
<path d="M1017.5 2310L1027 2294C1027 2294 1053 2308 1061 2311.5C1069 2315 1107.5 2328 1107.5 2328C1107.5 2328 1136 2338.5 1142 2341.5C1148 2344.5 1160 2354 1160 2354C1160 2354 1168.5 2360 1171.5 2361.5C1174.5 2363 1182 2365 1187.5 2369C1193 2373 1204 2383.5 1204 2383.5C1204 2383.5 1217.5 2396 1222.5 2397.5C1227.5 2399 1260 2401 1260 2401C1260 2401 1298 2402 1302.5 2401C1307 2400 1320.5 2395.5 1329 2394C1337.5 2392.5 1353.5 2394 1353.5 2394H1403.5C1403.5 2394 1429.5 2394.5 1439 2392.5C1448.5 2390.5 1454.5 2386.5 1462.5 2383.5C1470.5 2380.5 1484.5 2372 1484.5 2372L1511 2358.5C1511 2358.5 1518.5 2353.5 1525.5 2352C1532.5 2350.5 1539 2350.5 1544 2349.5C1549 2348.5 1555.84 2345.25 1562 2344.5C1569.37 2343.6 1574 2343.5 1581 2344.5C1588 2345.5 1600.5 2348.5 1600.5 2348.5C1600.5 2348.5 1609.5 2350.5 1615 2353C1620.5 2355.5 1626.5 2359.5 1626.5 2359.5L1637.5 2365.5C1637.5 2365.5 1645 2370 1648.5 2371.5C1652 2373 1659.5 2375.5 1659.5 2375.5L1673 2379C1673 2379 1684 2382.5 1686 2384C1688 2385.5 1689 2386.5 1693.5 2390.5C1698 2394.5 1705 2407.5 1707.5 2413C1710 2418.5 1707.5 2428.5 1707.5 2428.5C1707.5 2428.5 1705.5 2434.5 1707.5 2438.5C1709.5 2442.5 1715.5 2446 1717 2448C1718.5 2450 1717.5 2453 1718.5 2455C1719.5 2457 1724.5 2461.5 1726.5 2464C1728.5 2466.5 1729.5 2469 1730 2473.5C1730.5 2478 1728 2480.5 1726.5 2483C1725 2485.5 1720.5 2490 1715 2491.5C1709.5 2493 1702.5 2496.5 1694.5 2498C1686.5 2499.5 1679.5 2498 1670 2497C1660.5 2496 1651 2492.5 1651 2492.5C1651 2492.5 1645.5 2491.5 1641.5 2491.5C1637.5 2491.5 1626.5 2494 1626.5 2494C1626.5 2494 1611.5 2495 1605.5 2493C1599.5 2491 1591.5 2485 1591.5 2485L1579.5 2479C1579.5 2479 1569.5 2475.5 1564 2475.5C1558.5 2475.5 1553 2476.5 1544.5 2477.5C1536 2478.5 1510.5 2478 1502 2478H1458C1451 2478 1424.5 2477 1415 2476.5C1405.5 2476 1390 2474.5 1379.5 2473C1369 2471.5 1363.5 2471 1354 2469C1344.5 2467 1336 2464.5 1326.5 2461.5C1317 2458.5 1312 2455.5 1302.5 2453C1293 2450.5 1282 2448.5 1282 2448.5C1282 2448.5 1259.5 2445 1249 2443C1238.5 2441 1226.5 2437.5 1218.5 2435.5C1210.5 2433.5 1190 2431.5 1190 2431.5C1190 2431.5 1170.5 2429.5 1162.5 2429C1154.5 2428.5 1133 2423.5 1133 2423.5C1133 2423.5 1112.5 2419 1104.5 2417.5C1096.5 2416 1083 2412 1076.5 2411C1070 2410 1053.5 2407.5 1046 2406.5C1038.5 2405.5 1018.5 2404.5 1010.5 2404C1002.5 2403.5 988 2402.5 981 2402C974 2401.5 952 2398.5 952 2398.5C952 2398.5 956 2394.5 960 2390C964 2385.5 968.5 2377.5 970.5 2374C972.5 2370.5 975 2363 981 2357C987 2351 993 2346 996 2342.5C999 2339 1003 2334.5 1007.5 2327C1012 2319.5 1017.5 2310 1017.5 2310Z" fill="#E9B4B4"/>
<path d="M1565.5 1909.5L1564 1833.5C1564 1833.5 1568 1839 1569.5 1842L1576.5 1856C1576.5 1856 1580 1863 1580.5 1866C1581 1869 1581 1874.5 1581 1874.5C1581 1874.5 1580.5 1883.5 1579.5 1887.5C1578.5 1891.5 1574 1899 1572.5 1901.5C1571 1904 1568.5 1908 1567 1909.5C1565.5 1911 1565.5 1909.5 1565.5 1909.5Z" fill="#E9B4B4"/>
</svg>
