<svg width="749" height="535" viewBox="0 0 749 535" fill="none" xmlns="http://www.w3.org/2000/svg">
<path d="M19 9.49998C14.5 12.5 -0.5 32.5 -0.5 32.5V535H749C749 535 749 511 742.5 493.5C736 476 737.5 474.5 733.5 461.5C729.5 448.5 728.5 447 721.5 437C714.5 427 710.5 431.5 704 437C697.5 442.5 694.5 449 685.5 447C676.5 445 675.5 426.5 670.5 413C665.5 399.5 661 382.5 655 371.5C649 360.5 650 359 639 341C628 323 615.5 305 602 309C588.5 313 587 315.5 580.5 321.5C574 327.5 559.5 338 553 336C546.5 334 542.5 327.5 533 316.5C523.5 305.5 516.5 285.5 508.5 275C500.5 264.5 495.5 256 489 249C482.5 242 471.5 228.5 458 221.5C444.5 214.5 434 208 410.5 212.5C387 217 370 235 359 233C348 231 350 217.5 337.5 212.5C325 207.5 314 216.5 307 212.5C300 208.5 286.5 191 276 190C265.5 189 248 196.5 241 194.5C234 192.5 216.5 148.5 216.5 148.5C216.5 148.5 209 127.5 190.5 127.5C172 127.5 151.5 155.5 143 155C134.5 154.5 122.5 134.5 117 118C111.5 101.5 91.5 32.5 85.5 23C79.5 13.5 75.5 -1.00002 51 0.499981C26.5 1.99998 23.5 6.49999 19 9.49998Z" fill="#FEAA3B"/>
</svg>
