<svg width="491" height="642" viewBox="0 0 491 642" fill="none" xmlns="http://www.w3.org/2000/svg">
<path d="M482.5 10C485 5.5 491.5 0 491.5 0L490.5 641.5H0.5C0.5 641.5 2 616.5 9.5 596.5C17 576.5 16 578 17.5 575.5C19 573 21 568.5 28 569.5C35 570.5 37 580.5 40 582C43 583.5 48.5 579 50.5 575.5C52.5 572 61.5 537.5 61.5 537.5C61.5 537.5 64.5 527 68 517.5L68.2439 516.838C71.5276 507.922 72.1777 506.156 79.5 492C87 477.5 92 471 94.5 467.5C97 464 100.5 458.5 111 459C121.5 459.5 128.5 462 142 480C155.5 498 151.5 500.5 161.5 498C171.5 495.5 185 449.5 191.5 434C198 418.5 202 409.5 210.5 388C219 366.5 226.5 346 226.5 346C226.5 346 233.5 323.5 239.5 323C245.5 322.5 257.5 344 260.5 346C263.5 348 265 348 267.5 346C270 344 273 327.5 274.5 325C276 322.5 278.5 326.5 280.5 325C282.5 323.5 287.5 307 292.5 299.5C297.5 292 301.5 286 306 286.5C310.5 287 315 292 317.5 290.5C320 289 333.5 269.5 336.5 260C339.5 250.5 341 236.5 341 236.5C341 236.5 344 218 350 203C356 188 361 183.5 365.5 176.5C370 169.5 375 162 382.5 162C390 162 397.5 172 402 172C406.5 172 410.5 164 413 155C415.5 146 416.5 133 416.5 133L421.5 108.5C421.5 108.5 425.5 93 427 89C428.5 85 432 76 434 72.5C436 69 441 62.5 445.5 59C450 55.5 451 56 453 55C455 54 462.5 51.5 466 48.5C469.5 45.5 472 43 474 38C476 33 475.5 27.5 476.5 23.5C477.5 19.5 480 14.5 482.5 10Z" fill="#FD6041"/>
</svg>
