<svg width="785" height="614" viewBox="0 0 785 614" fill="none" xmlns="http://www.w3.org/2000/svg">
<g clip-path="url(#clip0)">
<path d="M26 7C12.5 7 0 22 0 22V613.5H786V17C786 17 774.5 23 769.5 32.5C764.5 42 766 38.5 761 49C756 59.5 756.5 68 753.5 76C750.5 84 744.5 91.5 738.5 85.5C732.5 79.5 730.5 69 726.5 62C722.5 55 718.5 49.5 708.5 51C698.5 52.5 695 66.5 692 76C689 85.5 684.5 117 683 130.5C681.5 144 679 180.5 675 186C671 191.5 669.5 187.5 666.5 193C663.5 198.5 666.5 206 660 206C653.5 206 643 169.5 635 171.5C627 173.5 629.5 188 623.5 187.5C617.5 187 610 150 598 154.5C586 159 579.5 169 570.5 164.5C561.5 160 541.5 135 526 135.5C510.5 136 498.5 154.5 489 167C479.5 179.5 469.5 202.5 464.5 207C459.5 211.5 455.5 214.5 447.5 213C439.5 211.5 429 190.5 421.5 193.5C414 196.5 368.5 236.5 356 243.5C343.5 250.5 337.5 253.5 325.5 245C313.5 236.5 295 197.5 288 184C281 170.5 276.5 158 267 156C257.5 154 255 152.5 244 156C233 159.5 217 180 210.5 184C204 188 200 184 190.5 180C181 176 161 128 154 123C147 118 148.5 128 145 128C141.5 128 138.5 94.5 131 98C123.5 101.5 121.5 107.5 115 119C108.5 130.5 100.5 138.5 100.5 138.5C100.5 138.5 93.5 149 85.5 144.5C77.5 140 78 137 73.5 128C69 119 57 78.5 57 78.5L51 54C51 54 44.5 26 42 22C39.5 18 39.5 7 26 7Z" fill="#AA4450"/>
</g>
<defs>
<clipPath id="clip0">
<rect width="785" height="614" fill="white"/>
</clipPath>
</defs>
</svg>
