<svg width="562" height="299" viewBox="0 0 562 299" fill="none" xmlns="http://www.w3.org/2000/svg">
<path d="M37.5 38.5C32.3 16.9 10.6667 3.83333 0.5 0V298.5H561.5L549.5 292.5C546.5 291 545 291 539 287.5C533 284 519.5 273 515 269.5C510.5 266 509 263.5 504.5 260C500 256.5 494 253.5 490 250.5C486 247.5 478 241 473.5 238.5C469 236 458.5 233 458.5 233C458.5 233 453.5 230.5 449.5 233C445.5 235.5 447 235.5 443 238.5C439 241.5 438.5 241.5 435.5 244C432.5 246.5 431 247.5 428 250.5C425 253.5 424 255 420 257.5C416 260 414.5 260 412 260C409.5 260 408.5 259 405.5 257.5C402.5 256 398 247.5 398 247.5L391.5 235.5C391.5 235.5 387.5 226 385.5 222.5C383.5 219 377.5 212.5 377.5 212.5C377.5 212.5 370.5 205.5 369 203.5C367.5 201.5 361 196.5 361 196.5C361 196.5 355.5 193 350 193.5C344.5 194 345.5 196.5 341 196.5C336.5 196.5 333.5 199 330 200.5C326.5 202 320.5 205.5 319 206.5C317.5 207.5 311 211 307.5 212.5C304 214 297 216 295 216C293 216 291 214.5 288.5 212.5C286 210.5 283 207.5 281.5 206.5C280 205.5 275.5 205 273.5 206.5C271.5 208 269.5 210.5 268.5 212.5C267.5 214.5 264.5 219.5 263 222.5C261.5 225.5 258.5 234 256 235.5C253.5 237 252 237 248 235.5C244 234 241 231 239 228.5C237 226 231.5 212.5 231.5 212.5L223.5 193.5L217 177L212 160.5C212 160.5 208 148.5 206 141.5C204 134.5 203.5 134 201 127.5C198.5 121 195 112.5 195 112.5L188.5 96.5C188.5 96.5 183.5 85 181 81.5C178.5 78 175.5 75.5 172.5 74C169.5 72.5 166.5 72.5 162.5 74C158.5 75.5 147.5 85 147.5 85L117 115.5C110 122.5 100.5 138.611 81 135C67.5 132.5 58.5 120 55 112.5C51.5 105 44 65.5 37.5 38.5Z" fill="#F59999"/>
</svg>
