<svg width="785" height="537" viewBox="0 0 785 537" fill="none" xmlns="http://www.w3.org/2000/svg">
<g clip-path="url(#clip0)">
<path d="M19 10.5C14.5 13.5 -0.5 33.5 -0.5 33.5V536H749C749 536 749 512 742.5 494.5C736 477 737.5 475.5 733.5 462.5C729.5 449.5 728.5 448 721.5 438C714.5 428 710.5 432.5 704 438C697.5 443.5 694.5 450 685.5 448C676.5 446 675.5 427.5 670.5 414C665.5 400.5 661 383.5 655 372.5C649 361.5 650 360 639 342C628 324 615.5 306 602 310C588.5 314 587 316.5 580.5 322.5C574 328.5 559.5 339 553 337C546.5 335 542.5 328.5 533 317.5C523.5 306.5 516.5 286.5 508.5 276C500.5 265.5 495.5 257 489 250C482.5 243 471.5 229.5 458 222.5C444.5 215.5 434 209 410.5 213.5C387 218 370 236 359 234C348 232 350 218.5 337.5 213.5C325 208.5 314 217.5 307 213.5C300 209.5 286.5 192 276 191C265.5 190 248 197.5 241 195.5C234 193.5 216.5 149.5 216.5 149.5C216.5 149.5 209 128.5 190.5 128.5C172 128.5 151.5 156.5 143 156C134.5 155.5 122.5 135.5 117 119C111.5 102.5 91.5 33.5 85.5 24C79.5 14.5 75.5 -1.94311e-05 51 1.49998C26.5 2.99998 23.5 7.49999 19 10.5Z" fill="#FEAA3B"/>
</g>
<defs>
<clipPath id="clip0">
<rect width="785" height="537" fill="white"/>
</clipPath>
</defs>
</svg>
