<svg width="509" height="654" viewBox="0 0 509 654" fill="none" xmlns="http://www.w3.org/2000/svg">
<g clip-path="url(#clip0)">
<path d="M500.5 22C503 17.5 509.5 12 509.5 12L508.5 653.5H18.5C18.5 653.5 20 628.5 27.5 608.5C35 588.5 34 590 35.5 587.5C37 585 39 580.5 46 581.5C53 582.5 55 592.5 58 594C61 595.5 66.5 591 68.5 587.5C70.5 584 79.5 549.5 79.5 549.5C79.5 549.5 82.5 539 86 529.5L86.2439 528.838C89.5276 519.922 90.1777 518.156 97.5 504C105 489.5 110 483 112.5 479.5C115 476 118.5 470.5 129 471C139.5 471.5 146.5 474 160 492C173.5 510 169.5 512.5 179.5 510C189.5 507.5 203 461.5 209.5 446C216 430.5 220 421.5 228.5 400C237 378.5 244.5 358 244.5 358C244.5 358 251.5 335.5 257.5 335C263.5 334.5 275.5 356 278.5 358C281.5 360 283 360 285.5 358C288 356 291 339.5 292.5 337C294 334.5 296.5 338.5 298.5 337C300.5 335.5 305.5 319 310.5 311.5C315.5 304 319.5 298 324 298.5C328.5 299 333 304 335.5 302.5C338 301 351.5 281.5 354.5 272C357.5 262.5 359 248.5 359 248.5C359 248.5 362 230 368 215C374 200 379 195.5 383.5 188.5C388 181.5 393 174 400.5 174C408 174 415.5 184 420 184C424.5 184 428.5 176 431 167C433.5 158 434.5 145 434.5 145L439.5 120.5C439.5 120.5 443.5 105 445 101C446.5 97 450 88 452 84.5C454 81 459 74.5 463.5 71C468 67.5 469 68 471 67C473 66 480.5 63.5 484 60.5C487.5 57.5 490 55 492 50C494 45 493.5 39.5 494.5 35.5C495.5 31.5 498 26.5 500.5 22Z" fill="#FD6041"/>
</g>
<defs>
<clipPath id="clip0">
<rect width="509" height="654" fill="white"/>
</clipPath>
</defs>
</svg>
