<svg width="785" height="607" viewBox="0 0 785 607" fill="none" xmlns="http://www.w3.org/2000/svg">
<path d="M26 0C12.5 0 0 15 0 15V606.5H786V10C786 10 774.5 16 769.5 25.5C764.5 35 766 31.5 761 42C756 52.5 756.5 61 753.5 69C750.5 77 744.5 84.5 738.5 78.5C732.5 72.5 730.5 62 726.5 55C722.5 48 718.5 42.5 708.5 44C698.5 45.5 695 59.5 692 69C689 78.5 684.5 110 683 123.5C681.5 137 679 173.5 675 179C671 184.5 669.5 180.5 666.5 186C663.5 191.5 666.5 199 660 199C653.5 199 643 162.5 635 164.5C627 166.5 629.5 181 623.5 180.5C617.5 180 610 143 598 147.5C586 152 579.5 162 570.5 157.5C561.5 153 541.5 128 526 128.5C510.5 129 498.5 147.5 489 160C479.5 172.5 469.5 195.5 464.5 200C459.5 204.5 455.5 207.5 447.5 206C439.5 204.5 429 183.5 421.5 186.5C414 189.5 368.5 229.5 356 236.5C343.5 243.5 337.5 246.5 325.5 238C313.5 229.5 295 190.5 288 177C281 163.5 276.5 151 267 149C257.5 147 255 145.5 244 149C233 152.5 217 173 210.5 177C204 181 200 177 190.5 173C181 169 161 121 154 116C147 111 148.5 121 145 121C141.5 121 138.5 87.5 131 91C123.5 94.5 121.5 100.5 115 112C108.5 123.5 100.5 131.5 100.5 131.5C100.5 131.5 93.5 142 85.5 137.5C77.5 133 78 130 73.5 121C69 112 57 71.5 57 71.5L51 47C51 47 44.5 19 42 15C39.5 11 39.5 0 26 0Z" fill="#AA4450"/>
</svg>
