<svg width="180" height="180" viewBox="0 0 180 180" fill="none" xmlns="http://www.w3.org/2000/svg">
<path d="M44 15.5C44 15.5 31 24.5 25 30.5C25 30.5 18 38.5 15 44C12 49.5 7.5 60.5 7.5 60.5C4.50001 67 2.49999 79 2.5 84C2.50001 89 3.49999 101 4.5 105.5C5.50001 110 10.5 123 13 127C15.5 131 21 140.5 25 144.5C29 148.5 40 158 44 160C48 162 57.5 167 62.5 168.5C67.5 170 81 171.5 81 171.5V156.5C81 148 86 134.5 89 127C92 119.5 98 107 103.5 102C109 97 130 93 137.5 93.5C145 94 174.5 101.5 174.5 101.5C174.5 101.5 177 86 177 78.5C177 71 172 58.5 169 53C166 47.5 158.5 35 154 30.5C149.5 26 141.5 18.5 137.5 15.5C133.5 12.5 124.5 8 117 6C109.5 4 89 2.5 89 2.5C89 2.5 76.5 2.5 65 6C53.5 9.5 44 15.5 44 15.5Z" fill="url(#paint0_radial)"/>
<defs>
<radialGradient id="paint0_radial" cx="0" cy="0" r="1" gradientUnits="userSpaceOnUse" gradientTransform="translate(115.5 122.5) rotate(-127.25) scale(120.603 124.528)">
<stop offset="0.515525" stop-color="#102B6A" stop-opacity="0"/>
<stop offset="0.515625" stop-color="white" stop-opacity="0"/>
<stop offset="1" stop-color="white"/>
</radialGradient>
</defs>
</svg>
