<svg width="175" height="170" viewBox="0 0 175 170" fill="none" xmlns="http://www.w3.org/2000/svg">
<path d="M42 13.5C42 13.5 29 22.5 23 28.5C23 28.5 16 36.5 13 42C10 47.5 5.5 58.5 5.5 58.5C2.50001 65 0.499993 77 0.5 82C0.500007 87 1.49999 99 2.5 103.5C3.50001 108 8.49999 121 11 125C13.5 129 19 138.5 23 142.5C27 146.5 38 156 42 158C46 160 55.5 165 60.5 166.5C65.5 168 79 169.5 79 169.5V154.5C79 146 84 132.5 87 125C90 117.5 96 105 101.5 100C107 95 128 91 135.5 91.5C143 92 172.5 99.5 172.5 99.5C172.5 99.5 175 84 175 76.5C175 69 170 56.5 167 51C164 45.5 156.5 33 152 28.5C147.5 24 139.5 16.5 135.5 13.5C131.5 10.5 122.5 6 115 4C107.5 2 87 0.5 87 0.5C87 0.5 74.5 0.5 63 4C51.5 7.5 42 13.5 42 13.5Z" fill="url(#paint0_radial)"/>
<defs>
<radialGradient id="paint0_radial" cx="0" cy="0" r="1" gradientUnits="userSpaceOnUse" gradientTransform="translate(113.5 120.5) rotate(-127.25) scale(120.603 124.528)">
<stop offset="0.515525" stop-color="#102B6A" stop-opacity="0"/>
<stop offset="0.515625" stop-color="white" stop-opacity="0"/>
<stop offset="1" stop-color="white"/>
</radialGradient>
</defs>
</svg>
